<?xml version="1.0" encoding="utf-8"?>
<!-- Generator: Adobe Illustrator 28.2.0, SVG Export Plug-In . SVG Version: 6.00 Build 0)  -->
<svg version="1.1" id="Layer_1" xmlns="http://www.w3.org/2000/svg" xmlns:xlink="http://www.w3.org/1999/xlink" x="0px" y="0px"
	 viewBox="0 0 2341.3 1470.7" style="enable-background:new 0 0 2341.3 1470.7;" xml:space="preserve">
<style type="text/css">
	.st0{fill:#FFFFFF;}
	.st1{fill:#FFFFFF;fill-opacity:0.6786;}
</style>
<g transform="translate(1130 401.29)">
	<g transform="translate(88,-100)">
		<circle class="st0" cx="-487.9" cy="451.9" r="1.7"/>
		<circle class="st0" cx="-54.3" cy="467.3" r="1.7"/>
		<circle class="st0" cx="-721.5" cy="-134.5" r="1.7"/>
		<circle class="st0" cx="801.4" cy="-250.7" r="1.7"/>
		<circle class="st0" cx="259.2" cy="483.6" r="1.7"/>
		<circle class="st0" cx="-671.6" cy="680.6" r="1.7"/>
		<circle class="st0" cx="-579.9" cy="618" r="1.7"/>
		<circle class="st0" cx="-957.9" cy="475.2" r="1.7"/>
		<circle class="st0" cx="-102.9" cy="562.8" r="1.7"/>
		<circle class="st0" cx="-734.4" cy="630.6" r="1.7"/>
		<circle class="st0" cx="395" cy="308.6" r="3.5"/>
		<circle class="st0" cx="75.1" cy="520.2" r="3.5"/>
		<circle class="st0" cx="-252.6" cy="-185.3" r="3.5"/>
		<circle class="st0" cx="-260.7" cy="-146.5" r="3.5"/>
		<circle class="st0" cx="-642.1" cy="-118.2" r="3.5"/>
		<circle class="st0" cx="565.7" cy="736.7" r="3.5"/>
		<circle class="st0" cx="1062.1" cy="-142.1" r="1.6"/>
		<circle class="st0" cx="-90.3" cy="83.1" r="2.1"/>
		<circle class="st0" cx="511.2" cy="-264.9" r="1.9"/>
		<circle class="st0" cx="416.7" cy="737.1" r="1.8"/>
		<circle class="st0" cx="-1215.3" cy="-163.4" r="1"/>
		<circle class="st0" cx="284.9" cy="599.9" r="2.5"/>
		<circle class="st0" cx="-700.7" cy="-186.4" r="1.4"/>
		<circle class="st0" cx="662.1" cy="571.4" r="2.3"/>
		<circle class="st0" cx="749.6" cy="-167.1" r="1.4"/>
		<circle class="st0" cx="-745.1" cy="205.3" r="2.6"/>
		<circle class="st0" cx="133.4" cy="665.3" r="1.9"/>
		<circle class="st0" cx="602.8" cy="727.4" r="2.2"/>
		<circle class="st0" cx="916.6" cy="514.4" r="2.5"/>
		<circle class="st0" cx="-528.2" cy="744.3" r="1.5"/>
		<circle class="st0" cx="-426.8" cy="544.7" r="1.8"/>
		<circle class="st0" cx="766.5" cy="-168" r="1.2"/>
		<circle class="st0" cx="-430" cy="595" r="2.5"/>
		<circle class="st0" cx="1023.3" cy="357.4" r="1"/>
		<circle class="st0" cx="-1082.7" cy="572.5" r="2.4"/>
		<circle class="st0" cx="978.9" cy="733.6" r="2.6"/>
		<circle class="st0" cx="55.9" cy="493.9" r="1"/>
		<circle class="st0" cx="731.2" cy="42.4" r="1.1"/>
		<circle class="st0" cx="-830.5" cy="-53" r="2.5"/>
		<circle class="st0" cx="-808.8" cy="591.2" r="2.4"/>
		<circle class="st0" cx="105.3" cy="387.8" r="0.9"/>
		<circle class="st0" cx="1007.2" cy="-35.6" r="1.4"/>
		<circle class="st0" cx="749.6" cy="-78.9" r="2.5"/>
		<circle class="st0" cx="174.1" cy="-172.5" r="2.2"/>
		<circle class="st0" cx="879.4" cy="48.2" r="2.3"/>
		<circle class="st0" cx="-152.2" cy="248.6" r="1.7"/>
		<circle class="st0" cx="-838.3" cy="506.9" r="2.3"/>
		<circle class="st0" cx="608.1" cy="260.4" r="2.1"/>
		<circle class="st0" cx="-1051.6" cy="-177.7" r="2.3"/>
		<circle class="st0" cx="365.1" cy="18.5" r="1"/>
		<circle class="st0" cx="-327.8" cy="248.1" r="1.7"/>
		<circle class="st0" cx="708.5" cy="-69.5" r="1.6"/>
		<circle class="st0" cx="820.8" cy="190.2" r="2.5"/>
		<circle class="st0" cx="-1131.4" cy="-142.8" r="2.3"/>
		<circle class="st0" cx="1103.7" cy="46.3" r="1.3"/>
		<circle class="st0" cx="-154.9" cy="685.1" r="1"/>
		<circle class="st0" cx="-892.2" cy="407.8" r="2.4"/>
		<circle class="st0" cx="-123.3" cy="178" r="2.3"/>
		<circle class="st0" cx="947.5" cy="570" r="1"/>
		<circle class="st0" cx="-1030.6" cy="745.4" r="2.3"/>
		<circle class="st0" cx="-1163.6" cy="320.5" r="2.4"/>
		<circle class="st0" cx="1017.2" cy="-110.9" r="2.4"/>
		<circle class="st0" cx="-274.2" cy="298.7" r="1.7"/>
		<circle class="st0" cx="-849.7" cy="-200.2" r="1.6"/>
		<circle class="st0" cx="38.9" cy="-36.3" r="1.9"/>
		<circle class="st0" cx="499.3" cy="42.5" r="1.8"/>
		<circle class="st0" cx="-897.4" cy="117.4" r="2.1"/>
		<circle class="st0" cx="783.3" cy="696" r="2.2"/>
		<circle class="st0" cx="-192.1" cy="374.1" r="1.6"/>
		<circle class="st0" cx="222" cy="-232.3" r="1.9"/>
		<circle class="st0" cx="753.6" cy="107.1" r="1.8"/>
		<circle class="st0" cx="1.3" cy="158.6" r="1.6"/>
		<circle class="st0" cx="958.7" cy="607.3" r="2.2"/>
		<circle class="st0" cx="-639.4" cy="-54.2" r="1"/>
		<circle class="st0" cx="-191.9" cy="453.8" r="1.5"/>
		<circle class="st0" cx="567.5" cy="87.7" r="1.6"/>
		<circle class="st0" cx="-101" cy="605.6" r="2.2"/>
		<circle class="st0" cx="262.9" cy="-51.2" r="1.6"/>
		<circle class="st0" cx="-430.6" cy="215" r="2.3"/>
		<circle class="st0" cx="-1091.9" cy="23" r="1.1"/>
		<circle class="st0" cx="343" cy="-258.2" r="1.9"/>
		<circle class="st0" cx="279.5" cy="560.4" r="2.5"/>
		<circle class="st0" cx="-467.6" cy="692.7" r="2.3"/>
		<circle class="st0" cx="-721.8" cy="-122.8" r="2.5"/>
		<circle class="st0" cx="-518.6" cy="437.4" r="1.8"/>
		<circle class="st0" cx="601" cy="225.7" r="2.3"/>
		<circle class="st0" cx="-1188.2" cy="727.8" r="2"/>
		<circle class="st0" cx="860.3" cy="113.6" r="1.8"/>
		<circle class="st0" cx="-219.6" cy="-284.5" r="1.3"/>
		<circle class="st0" cx="96.6" cy="-213.6" r="1.7"/>
		<circle class="st0" cx="437.4" cy="-30.7" r="1"/>
		<circle class="st0" cx="-762.6" cy="45.5" r="1.5"/>
		<circle class="st0" cx="506.4" cy="-1.6" r="1.4"/>
		<circle class="st0" cx="425.6" cy="685.9" r="2"/>
		<circle class="st0" cx="-898.3" cy="691.2" r="2.6"/>
		<circle class="st0" cx="1032.3" cy="191.2" r="2.1"/>
		
			<ellipse transform="matrix(7.088959e-02 -0.9975 0.9975 7.088959e-02 523.1089 269.3649)" class="st0" cx="406.1" cy="-146.1" rx="1.2" ry="1.2"/>
		<circle class="st0" cx="1031.4" cy="705" r="2.4"/>
		<circle class="st0" cx="951" cy="677.1" r="1"/>
		<circle class="st0" cx="-888.1" cy="35.8" r="2.1"/>
		<circle class="st0" cx="-1078.6" cy="130.8" r="1.1"/>
		<circle class="st0" cx="205.6" cy="174.2" r="2.3"/>
		<circle class="st0" cx="713.5" cy="-10.8" r="2.3"/>
		<circle class="st0" cx="-80" cy="544.8" r="1.3"/>
		<circle class="st0" cx="885.5" cy="-146.2" r="1"/>
		<circle class="st0" cx="605.3" cy="191.9" r="2.1"/>
		<circle class="st0" cx="-321.9" cy="331.6" r="1.6"/>
		<circle class="st0" cx="-112.9" cy="334.7" r="2.5"/>
		<circle class="st0" cx="-803" cy="10.3" r="1.4"/>
		<circle class="st0" cx="-1099.8" cy="663" r="2.1"/>
		<circle class="st0" cx="340.5" cy="-55.8" r="2.2"/>
		<circle class="st0" cx="90.9" cy="722.1" r="1.1"/>
		<circle class="st0" cx="-609.2" cy="546.5" r="1.7"/>
		<circle class="st0" cx="-1205.5" cy="-153.4" r="2.3"/>
		<circle class="st0" cx="407.3" cy="198.8" r="1"/>
		<circle class="st0" cx="88.5" cy="522.7" r="1.1"/>
		<circle class="st0" cx="-435.3" cy="59.6" r="2.5"/>
		<circle class="st0" cx="1113.3" cy="-64.9" r="1.1"/>
		<circle class="st0" cx="-505.9" cy="253.5" r="1.6"/>
		<circle class="st0" cx="-969.2" cy="482.9" r="2.3"/>
		<circle class="st0" cx="-149.1" cy="602.5" r="2.4"/>
		<circle class="st0" cx="911.1" cy="-197.3" r="2"/>
		<circle class="st0" cx="198.6" cy="-218.4" r="1.7"/>
		<circle class="st0" cx="-507.8" cy="-97.9" r="1.5"/>
		<circle class="st0" cx="1100.8" cy="157.7" r="2.4"/>
		<circle class="st0" cx="-1197.5" cy="526.9" r="2.3"/>
		<circle class="st0" cx="-300" cy="555.5" r="1.7"/>
		<circle class="st0" cx="1038.7" cy="165.2" r="1.3"/>
		<circle class="st0" cx="81.2" cy="51.6" r="1.5"/>
		<circle class="st0" cx="-973.8" cy="476.7" r="2.3"/>
		<circle class="st0" cx="797.1" cy="518.2" r="1.8"/>
		<circle class="st0" cx="1006.1" cy="232" r="1"/>
		<circle class="st0" cx="-862.4" cy="271.9" r="1.4"/>
		<circle class="st0" cx="-263.9" cy="533.8" r="1.3"/>
		<circle class="st0" cx="-495.7" cy="554.5" r="1.2"/>
		<circle class="st0" cx="215.4" cy="63" r="1.6"/>
		<circle class="st0" cx="817.4" cy="656.3" r="2"/>
		<circle class="st0" cx="-388" cy="696.5" r="1.6"/>
		<circle class="st0" cx="13.8" cy="706.7" r="1.9"/>
		<circle class="st0" cx="671.6" cy="357.7" r="2.1"/>
		<circle class="st0" cx="-1068.3" cy="738.5" r="1"/>
		<circle class="st0" cx="-469.5" cy="306.3" r="1.5"/>
		<circle class="st0" cx="-301.8" cy="421" r="2.1"/>
		<circle class="st0" cx="401.2" cy="-43.7" r="2"/>
		<circle class="st0" cx="100.9" cy="116.2" r="1.9"/>
		<circle class="st0" cx="904.9" cy="204.6" r="1.9"/>
		<circle class="st0" cx="619.9" cy="549.6" r="1.6"/>
		<circle class="st0" cx="-881.1" cy="-146" r="1.9"/>
		<circle class="st0" cx="-889.2" cy="-231.9" r="2.3"/>
		<circle class="st0" cx="780.7" cy="407.9" r="0.9"/>
		<circle class="st0" cx="-883.9" cy="571" r="2.5"/>
		<circle class="st0" cx="-539.3" cy="742.3" r="2"/>
		<circle class="st0" cx="-252.1" cy="-19.4" r="1.6"/>
		<circle class="st0" cx="-415.4" cy="28.9" r="1.1"/>
		<circle class="st0" cx="-1076" cy="-253.4" r="1.4"/>
		<circle class="st1" cx="-451.7" cy="852.4" r="1.7"/>
		<circle class="st1" cx="-18" cy="867.9" r="1.7"/>
		<circle class="st1" cx="295.4" cy="884.1" r="1.7"/>
		<circle class="st0" cx="-921.6" cy="875.7" r="1.7"/>
		<circle class="st1" cx="-66.6" cy="963.3" r="1.7"/>
		<circle class="st1" cx="111.3" cy="920.7" r="3.5"/>
		<circle class="st1" cx="698.3" cy="971.9" r="2.3"/>
		<circle class="st0" cx="952.9" cy="914.9" r="2.5"/>
		<circle class="st1" cx="-390.6" cy="945.2" r="1.8"/>
		<circle class="st0" cx="-1046.5" cy="973" r="2.4"/>
		<circle class="st1" cx="92.1" cy="894.5" r="1"/>
		<circle class="st1" cx="-802.2" cy="907.4" r="2.3"/>
		<circle class="st0" cx="983.7" cy="970.5" r="1"/>
		<circle class="st1" cx="-155.7" cy="854.4" r="1.5"/>
		<circle class="st1" cx="315.7" cy="960.9" r="2.5"/>
		<circle class="st1" cx="-482.3" cy="837.9" r="1.8"/>
		<circle class="st1" cx="-43.8" cy="945.3" r="1.3"/>
		<circle class="st1" cx="-573" cy="947.1" r="1.7"/>
		<circle class="st1" cx="124.7" cy="923.2" r="1.1"/>
		<circle class="st0" cx="-933" cy="883.4" r="2.3"/>
		<circle class="st0" cx="-1161.2" cy="927.4" r="2.3"/>
		<circle class="st1" cx="-263.8" cy="956" r="1.7"/>
		<circle class="st1" cx="833.3" cy="918.8" r="1.8"/>
		<circle class="st1" cx="-227.7" cy="934.4" r="1.3"/>
		<circle class="st1" cx="-459.5" cy="955.1" r="1.2"/>
		<circle class="st1" cx="656.1" cy="950.1" r="1.6"/>
		<circle class="st0" cx="-847.7" cy="971.5" r="2.5"/>
	</g>
	<g>
		<path color-rendering="auto" image-rendering="auto" shape-rendering="auto" class="st0" d="M91.8,179.5l339.2-523.5L101.7,186.6
			L91.8,179.5z"/>
		<path class="st0" d="M102.2,181.3c0.4,4.5-0.3,10.5-4.8,10.9c-4.5,0.4-8.4-2.8-8.9-7.3c-0.4-4.5,4-7.1,8.5-7.6
			C100,173.8,104.3,177.6,102.2,181.3L102.2,181.3z"/>
	</g>
	<path class="st0" d="M-1129.9,779.1l3.1-3.9c1.7-2.1,2.7-4.8,2.3-5.9c-1-2.7,3.3-8.2,4.4-5.6c0.4,1,2.2,1.8,4,1.8
		c1.8,0,3.9,0.6,4.6,1.4c0.8,0.7,3.7,1.6,6.5,1.8l5.1,0.5l-0.5,6.1l-0.5,6.1l4.6,2.4c3.7,1.9,4.5,3.1,4,5.9
		c-1.1,5.7,13.2,8.7,20.9,4.3c2-1.2,4.1-2.1,4.6-2.1c1.8-0.1,2.6,6.4,1,8.3c-0.9,1-1,1.9-0.4,1.9s0,0.9-1.4,1.9
		c-2.1,1.6-2.2,2.2-0.6,3.4c3.1,2.3,12.9,4.9,12.9,3.3c0-0.7,1.6-2,3.7-2.8c4.4-1.7,4.9-5.9,0.7-5.9c-4.4,0-3.5-2.7,1-3.2
		c2.8-0.3,4.2-1.5,4.8-4.1c0.5-2.2,2.2-4,4.4-4.5c5.1-1.3-8.8-3.5-14.7-2.3c-2.4,0.5-4.3,0.2-4.3-0.6c0-0.8,1.2-1.4,2.6-1.5l2.6,0
		l-2.5-1.5c-1.4-0.8-2.2-2.3-1.8-3.2c1.1-2.9-9.6-6.7-14.4-5c-2.3,0.8-3.8,2.1-3.4,3.1c0.4,1-0.6,1.8-2.2,2
		c-2.2,0.2-2.6-0.4-1.9-2.8c0.6-1.9,0.4-2.7-0.6-2.1c-1.8,1.1-5.1-4.4-3.9-6.5c2.3-3.7,6.2-4.2,11.5-1.5c4.3,2.2,5.3,2.3,5.3,0.6
		c0-1.6,0.6-1.7,2.8-0.6c3.7,2,13.7,2,12.5,0.1c-0.5-0.8-0.1-1.5,1-1.5c1.2,0,1-0.9-0.7-2.6l-2.6-2.6l-1.5,2.6
		c-1.8,3.1-4.9,3.4-3.7,0.4c0.5-1.2,0-2.2-0.9-2.3c-1-0.1-0.3-0.8,1.5-1.7c1.8-0.9,3.3-2.1,3.3-2.8c0-1.9-2.6-1.5-3.5,0.6
		c-0.6,1.3-1.2,1.1-2.4-0.7c-0.9-1.4-2.6-2.1-3.7-1.7c-2.8,1.1-2.7-0.8,0.2-4.1c1.8-2,2-3.1,0.7-4.7c-1.3-1.6-1.2-2.5,0.6-3.9
		c1.9-1.6,2.6-1.4,4.2,0.8l2,2.7l1-4.7c0.6-2.6,1.8-4.7,2.7-4.8c0.9-0.1,0.4-0.6-1.2-1.2l-2.9-1.1l4.1-2.7c2.2-1.5,3.5-3.1,2.9-3.5
		c-2.1-1.5-7.1-12.3-6.6-14.3c0.2-1.1-0.6-2.3-1.8-2.8c-2.8-1.1-3-3.5-0.2-3.5c1.1,0,5.1,3,8.8,6.7c7,7,9.7,7.5,8.6,1.6
		c-0.5-2.5,0.3-4.2,2.5-5.7l3.2-2.2l-2.5-1.4c-2.7-1.5-1.8-10.6,1-10.6c0.8,0,2.9-1.7,4.5-3.8c2.6-3.3,3.2-3.5,4.3-1.4
		c0.7,1.3,1.9,2,2.5,1.6c0.7-0.4,1.6,0.4,2.2,1.7c0.6,1.5,0.1,3-1.3,3.7c-1.7,1-1.9,1.9-0.8,4.1c0.8,1.5,1.3,3.3,1.2,3.9
		c-0.2,0.6,0.4,2.5,1.3,4.1c0.9,1.6,1.6,5.4,1.6,8.5c0,6.9,1,8,5,5.5l3.1-2l3.4,4l3.4,4l2.8-2.6c1.6-1.4,2.5-3.1,2-3.8
		c-1.3-2.1,1.8-1.4,3.7,0.9c1.9,2.3,0.7,5.8-1.5,4.4c-2.4-1.5-1.5,1.7,1.7,5.7c2.8,3.6,2.6,4.6-0.8,3.9c-0.8-0.2-0.6,0.6,0.4,1.6
		c1.4,1.4,2.5,1.5,4.5,0.2c1.6-1,3.4-1.2,4.7-0.4c1.1,0.7,4.2,1.3,6.8,1.3c5.5,0,6.3,2.1,1.5,3.7c-2.7,0.9-2.8,1.2-0.8,1.7
		c1.6,0.4,2.2,1.6,1.6,3.1c-0.7,2-0.5,2.1,1.1,0.7c2-1.9,5.8-0.1,5.8,2.8c0,2.4,8.6,10.7,9.8,9.4c0.6-0.6,0-2-1.4-3
		c-1.4-1-2.1-2.3-1.6-2.8c0.5-0.5,1.8-0.2,2.9,0.7c3,2.5,3.3,1.2,1.7-6.6c-1.7-7.8,0-12,3.5-8.5c3.8,3.8,6,2,5-4.2l-1-5.9l2.6,1.5
		c2.1,1.2,3,0.6,4.9-3l2.3-4.4l4.3,4.5c2.4,2.5,4.8,4.5,5.4,4.5c1.8,0,1.3-6.6-0.7-8.5c-1.1-1.1-1.2-1.8-0.2-1.8
		c2.3,0,4.5,3.1,5.7,8.1c0.6,2.4,2.1,6.4,3.3,8.8c1.3,2.4,2.2,4.7,2.1,5.2c-0.1,0.4,1.1,2.4,2.6,4.4l2.8,3.6l0.1-4.4
		c0.1-2.4,0.4-5.7,0.7-7.3c1.2-5.9,0.8-13.4-1-21l-1.9-7.8l3-5.3c1.9-3.3,2.9-7.5,2.7-11.1c-0.5-8.5,0.5-10,5.8-9
		c3.9,0.7,5,0.2,7.1-3.2c1.8-3,2.5-3.4,2.5-1.5c0,1.4-0.7,2.6-1.5,2.6c-0.9,0-1.1,0.8-0.5,1.7c0.7,1.2,1.7,0.8,3.1-1.1
		c2.3-3.1,3.7-1.9,6.5,5.6c0.9,2.4,2.5,3.9,3.9,3.7c1.3-0.2,2.7,0.3,3.1,1.1c0.3,0.8,1.5,2.3,2.6,3.4s1.9,2.9,1.9,4
		c0,1.1,0.7,2.1,1.5,2.1s1.5,1.2,1.5,2.6c0,5.9,13,9.4,13.3,3.6c0.1-1.6,0.7-1.1,1.6,1.5c1.7,4.8,3.6,5.2,4.9,1.1
		c1.2-3.8,3.7-2.3,3.7,2.1c0,1.9,1,4.2,2.2,5.2c1.2,1,2.2,3.7,2.2,6c0,4.7,2.1,5.5,4.2,1.6c0.9-1.7,0.8-5.2-0.1-9.9
		c-0.8-4-1.5-8.4-1.4-9.8c0-1.4-0.5-2.6-1.2-2.6c-2.9,0-5.7-15.2-3.1-16.8c0.8-0.5,2.6,1.3,3.9,3.9c1.4,2.6,2.3,4.8,2,4.8
		s0,1.5,0.6,3.4c0.8,2.6,1.5,3,3,1.8c1.2-1,2.3-1.1,2.8-0.2c0.5,0.8,0.2,1.9-0.6,2.4c-1.6,1-0.6,3.7,1.5,3.7c0.7,0,1.7-1.3,2.2-2.9
		c1.1-3.6,4.9-3.8,6.1-0.4c0.9,2.4,5.5,7.7,6.8,7.7c0.3,0,0.3-1.6-0.1-3.7c-0.4-2.1,0-3.7,0.9-3.7c0.9,0,1.6,0.7,1.6,1.5
		s1,1.5,2.2,1.5c4,0,2.3-6-3.7-12.8c-3.2-3.7-5.9-7.1-5.9-7.8c0-2.3,4.8-2.8,7.8-0.7c4.5,3.1,5.9,2.7,4.8-1.5
		c-0.7-2.7-0.3-3.7,1.3-3.7c2.4,0,3-3,0.9-5.2c-0.7-0.8-1.8-3-2.4-5l-1.1-3.7l2.8,2.3c3.8,3.1,12.3,3.6,12.3,0.6
		c0-1.2,0.6-2.2,1.3-2.2c1.8,0,6.4,10,5.3,11.7c-1.1,1.7,3.4,11.7,5.3,11.7c2,0,1.5-4.6-0.9-9.3c-1.2-2.3-2.2-5.1-2.2-6.3
		c0-1.2-1.3-4.8-2.9-8.2c-3.6-7.4-3.6-7,0-7c1.6,0,3.4-1,3.8-2.2c1.3-3.4,4.9,0.3,4.9,5.1c0,2.2,1,5.2,2.1,6.8l2.1,2.8l-0.4-7.4
		c-0.2-4.1-0.9-8.2-1.5-9.1c-3.3-5.3,6.4-3.2,14.8,3.2c10.2,7.8,11.9,8.3,7.7,2.5c-1.7-2.3-3-5.4-3-6.8v-2.5l3.3,2.2
		c1.8,1.2,3.3,3.1,3.3,4.2c0,1.1,1.3,2.2,2.8,2.5c1.5,0.3,4.4,2.5,6.4,4.8c4.6,5.4,5.5,4.6,2.6-2.4c-2.8-6.6-2.8-6.6-0.3-6.6
		c2.3,0,7.2,5,6,6.1c-1.2,1.2,4.6,13.1,8.7,18c3.7,4.4,7.3,4.1,4.1-0.4c-2.2-3.1-2.8-4.4-3.8-9.1c-0.4-2-2.4-5.3-4.3-7.4
		c-4.2-4.4-7.4-10.1-6.3-11.2c0.4-0.4,2.2,0.9,4,3c1.8,2.1,3.8,3.4,4.5,3c0.7-0.4-0.1-2.1-1.6-3.8c-2.8-3-2.7-6.5,0.1-4.8
		c2,1.2,1.7-1.1-0.9-7.4c-1.3-3-1.8-5.9-1.3-6.4c0.6-0.5,1.3-0.1,1.7,0.9c1.1,3,6.6,8.8,5.8,6.1c-0.4-1.3-1.2-5.6-1.7-9.5l-1-7.1
		l3,4.4c1.7,2.4,3,5.2,3,6.2c0,1,1,1.8,2.2,1.8c1.3,0,2.2,1.3,2.2,3.1c0,2.6,0.4,2.8,2.2,1.3c1.3-1.1,1.9-3.1,1.4-5.1
		c-0.6-2.2-0.1-3.6,1.5-4.2c1.3-0.5,2.3-0.2,2.3,0.7s2.5,3.9,5.5,6.8c3.4,3.2,5.3,6.2,5,8c-0.4,2.2,0.1,2.6,2.4,1.9
		c3.3-1.1,4.9,1.7,3.7,6.4c-0.5,1.9,0.2,4.2,1.8,6c3.6,4,4.9,3.6,4.8-1.5c-0.1-2.4,0.3-4.8,0.8-5.3c0.5-0.5-1.1-4.9-3.6-9.7
		c-5.1-10.1-6.6-17.9-3.7-19.1c1.3-0.5,2.5,1.5,3.8,6.3c1,3.9,3.4,8.8,5.4,10.9c2,2.1,3.5,4.8,3.5,6c0,1.2,0.7,1.8,1.5,1.3
		c0.8-0.5,1.5-2.5,1.5-4.5c0-5.2,4.6-9.3,9.6-8.3l4.1,0.8l-2.7,2c-3.2,2.3-2.3,2.5,2.9,0.6c5.1-1.9,5.1,1.8,0.1,6.4
		c-2,1.9-3.6,4.9-3.6,6.9l0.1,3.5l1.1-2.9l1.1-2.9l1.6,2.9l1.6,2.9l1-2.9c3.2-9,5-12.4,6.5-12.4c1,0,1.3,1,0.8,2.4
		c-0.7,1.9-0.2,2.2,2.7,1.4c3.7-0.9,3.9,1.5,0.5,5.9c-0.8,1-0.7,2.1,0.1,2.6c0.8,0.5,3.2-1.6,5.3-4.6l3.9-5.5l-1,4.4
		c-0.5,2.4-1.6,4.6-2.3,4.9c-1.7,0.6-1.8,4.6-0.1,4.6c0.7,0,2.1-1,3.1-2.2c2.5-3,3.4-2.8,6.1,1.7l2.3,3.9l1.8-5.4
		c1.6-4.9,5.9-6.9,4.6-2.2c-3,10.6,1.3,17.6,5.7,9.3c2.2-4,4.8-5.1,3.4-1.3c-0.8,2.1-0.5,2.1,2.3,0.4c1.9-1.2,2.9-3,2.5-4.5
		c-0.4-1.5,0.2-2.6,1.4-2.6c2.2,0,2.2,0,2.7,7c0.4,6,2.1,7.8,3.2,3.6c0.5-1.8,1.4-3.2,2.1-3.2c2.3,0,1.4,8.8-1.6,14.5
		c-1.6,3.1-2.5,6-2,6.5c0.5,0.5-0.9,2.9-3,5.4c-4.1,4.8-4.6,6.8-2.6,9.9c0.9,1.4,1.8,1,3.6-1.7c1.3-2,4.4-4.8,6.8-6.3
		c2.4-1.4,4.4-3.6,4.5-4.9c0-1.2,1-3.5,2.2-5c2.3-3,2.5-2.6,4.2,5.2c0.5,2.2,2.1,4.2,3.8,4.6c3.6,0.9,3.9,5.4,0.4,5.4
		c-3.6,0-12.1,5.4-12,7.7c0,1.3,0.6,1.2,1.9-0.3c3.4-4.1,8.4-6.2,10.5-4.4c1.5,1.3,2.2,0.9,3-1.7c2.4-8,12-10.7,9.9-2.8
		c-0.4,1.5-0.1,3.2,0.7,3.7c0.9,0.6,0.7,3.3-0.6,7.7c-3.1,10.2,1.7,12.2,6.6,2.9c1.1-2.1,2.7-3.8,3.5-3.8c0.8,0,0.3,1.3-1.1,2.8
		c-1.7,1.9-2,3.1-0.9,3.8c1,0.6,1.1,1.7,0.4,2.7c-0.7,0.9-1.4,3.3-1.5,5.4c-0.2,3.1,0,3.3,1.3,1.1c2-3.6,4.6-3.2,3.5,0.4
		c-0.8,2.6-0.5,2.9,2.7,2.1c2.2-0.5,4.1-0.2,4.7,0.9c0.7,1.1,0.5,1.4-0.4,0.8c-2.7-1.7-6.5,0.6-4.7,2.8c1.3,1.5,0.4,3-3.6,6.5
		c-3.4,3-5.1,5.7-4.9,7.8l0.3,3.3l5.9-3.2c3.3-1.8,7.6-3.7,9.6-4.3c5.8-1.7,1.2,2.9-6.7,6.7c-3.6,1.7-6.5,3.7-6.5,4.5
		s-0.7,1.3-1.5,1.3c-0.9,0-1.2-0.6-0.7-1.3s-0.6-1.7-2.3-2.1c-1.7-0.4-2.7-0.4-2.2,0.1s-0.2,2-1.5,3.5l-2.3,2.6l3.1-0.8
		c1.7-0.4,4,0,5.2,0.9c2.4,2,8.1-0.3,8.1-3.2c0-0.9,0.4-1.3,0.9-0.8c0.5,0.5,0.3,1.7-0.4,2.8c-1.7,2.6-4.7,11.4-4,11.4
		c0.3,0,2.2-1.1,4.2-2.4c4.2-2.7,4.8-5.2,1-4.2c-1.4,0.4-0.5-0.3,2.1-1.5c2.6-1.2,5.2-3.1,5.9-4.2c1.8-3,9.2-7.5,9.2-5.6
		c0,0.9-0.6,1.6-1.3,1.6c-3.1,0-4,7.8-1.3,10.6l2.7,2.7l4.2-3c8.2-5.8,12.7-3.8,6.1,2.7c-4.6,4.5-7.9,11.7-4.3,9.6
		c1.1-0.7,2.8-2.4,3.9-3.8c1.1-1.5,3.2-2.7,4.7-2.7c1.5,0,4.1-1.4,5.8-3.2c2.2-2.3,3-2.6,3-1c0,1.2-0.8,3.1-1.8,4.1
		c-1.2,1.3-1.3,1.7-0.1,1c2.7-1.5,3.7,1.6,1.8,5.3l-1.7,3.3l3.9-3.5c4.5-4.1,5-3,1.2,2.6c-1.5,2.1-3.1,4.9-3.7,6.1
		c-0.5,1.2-2.2,4.2-3.8,6.6c-4.7,7.3-2.7,7.9,6,2c5.9-4.1,8.5-3.2,3.1,1.1c-2.6,2.1-4.4,4.3-4,5c0.4,0.7,0.1,1.7-0.7,2.2
		c-0.8,0.5-1.1,1.5-0.7,2.2c1.1,1.7-2.5,7.3-4.6,7.3c-0.9,0-2,0.8-2.4,1.8c-0.4,1-1.1,1.4-1.7,0.8c-0.6-0.5,1.1-2.9,3.7-5.3
		c2.9-2.6,4.2-4.6,3.2-5.2c-0.9-0.5-2.5,0-3.5,1.2c-5.2,5.7-6.3,7.5-6.4,9.5c0,1.2-0.5,3.1-1.2,4.1c-2,3.2,2.5,2,6.5-1.7
		c4.7-4.4,15.9-10.2,15.9-8.3c0,0.8-3,3.2-6.6,5.3c-6.9,4.1-7.4,6.5-1.3,6.5c2,0,3.3-0.6,2.8-1.4c-0.5-0.7-0.1-1.8,0.8-2.4
		c0.9-0.6,2.3,0,3,1.4c1.3,2.4,4.4,3.4,3.8,1.3c-0.5-1.8,2-8.3,3.6-9.4c0.8-0.5,0.1-1.4-1.7-1.9c-5.5-1.7-2.6-5.2,4.3-5.2
		c1.5,0,2.8-1,2.8-2.1c0-1.4,0.8-1.8,2.4-1.2c2,0.8,2.2,0.3,1.4-3c-0.8-3.2-0.5-3.9,1.7-3.9c4,0,7.1-7.4,3.9-9.2
		c-1.9-1-2-1.8-0.6-3.4c1.4-1.7,1.1-2.1-1.7-2.1l-3.5,0l2.6-2c1.9-1.5,2.1-2.2,0.7-2.7c-1.3-0.5-0.8-1.6,1.8-3.8
		c3-2.6,3.3-3.4,1.6-4.5c-1.7-1.1-1.8-1.8-0.2-3.7c2-2.4,4.7-1.8,4.4,1.1c-0.6,4.6,0.4,6.6,3.8,7.4c4.6,1.1,4.8,3.4,0.4,4.1
		c-1.8,0.3-3.3,1.1-3.3,1.9c0,0.8-0.5,2.2-1.1,3.2c-1.7,2.6,1.4,3.7,4.7,1.6c2.5-1.6,3.4-1.4,5.5,0.7l2.5,2.5h-2.5
		c-1.4,0-2.6,0.7-2.7,1.5c-0.1,0.8-0.3,2.1-0.4,3c-0.1,0.8-1,2-2,2.6c-3.1,1.9-0.5,7.6,3.4,7.6c3.6,0,4.9,3.7,1.7,4.8
		c-1.4,0.5-1.4,1.1,0.1,2.9c1.5,1.9,1.5,2.4,0,3c-1,0.4-1.5,1.1-0.9,1.7c0.5,0.6,2.3,0.3,4-0.6l3-1.6l-0.8,9.9
		c-0.4,5.4-1.3,10.2-2,10.6c-0.7,0.4-3.6,3.9-6.5,7.7c-7.7,10.1-2.8,8.7,5.8-1.7c6.1-7.3,7.7-8.5,10.8-7.8c5.8,1.3,5.8,1.5,1.9,8.5
		c-3.7,6.7-3.6,10.9,0.1,5.7c1.7-2.4,2.4-2.5,4.4-0.8c1.9,1.6,2,2.4,0.5,4.2c-1.4,1.8-1.5,2.4-0.1,2.8c1.3,0.4,1.2,1.5-0.5,4.1
		c-1.4,2.1-2,4.9-1.4,7.1c0.7,2.7-0.6,5.3-5.7,11.5c-6.8,8.3-8.6,15.2-4.7,18.4c1.4,1.2,2.3,0.5,3.7-2.6c1-2.3,3.7-4.9,6-5.9
		c4.4-1.8,11.6-1.6,10.3,0.4c-0.4,0.6,0.2,1.7,1.4,2.4c1.6,1,1.7,1.8,0.4,3.4c-3.6,4.4,4.7,6.4,9.7,2.4c4.1-3.3,5.2-11.3,1.7-12.7
		c-0.6-0.2,0.5-3.5,2.3-7.3c1.8-3.8,3-7.3,2.7-7.9c-0.4-0.6,0-1.4,0.7-1.9c0.8-0.5,1.8-0.2,2.3,0.6c1.4,2.3,3.7,1.8,3.7-0.8
		c0-3.1,2.8-1.1,4.4,3.2c0.7,1.9,2.4,3.5,3.7,3.5c1.5,0,2.1,0.8,1.6,2.1c-1.1,3,1.3,4.1,4.9,2.3c2.3-1.3,3-1.1,3,0.6
		c0,3.4,2.5,4,5.2,1.3l2.5-2.5l2.2,3.2c1.2,1.8,2.7,3.2,3.3,3.2c1.8,0,0.6-7.8-1.3-8.5c-2.4-0.8-2.1-4.7,0.4-4.7
		c2.9,0,4.3-2.7,2.5-4.9c-0.8-1-1.2-3.2-0.8-4.8c0.4-1.7-0.2-3.7-1.4-4.8c-1.9-1.6-1.8-2.4,0.8-6.8c3-5.1,7.1-6.8,7.1-3
		c0,1.1,1,2.4,2.2,2.9c1.2,0.5,2.2,0.2,2.2-0.6c0-0.8-0.6-1.4-1.4-1.4c-0.9,0-0.9-1.3,0-3.7c0.8-2,0.9-3.7,0.4-3.7s0.3-0.9,1.9-2
		c1.6-1.1,3.9-2,5.1-2c1.2,0,2.9-0.2,3.7-0.4c3.1-0.8,5.1,0.1,5.1,2c0,1.1,1.1,2.4,2.4,2.9c1.9,0.7,2.2,0.2,1.5-2.7
		c-0.5-2-0.2-4,0.7-4.6c1.1-0.7,1-1.4-0.3-2.2c-1.1-0.7-1.5-1.7-0.9-2.3c0.6-0.6,2,0.1,3,1.6c2.4,3.3,5.3,1.8,4.3-2.2
		c-0.4-1.7,0-2.9,1-2.9c1,0,1.2-0.8,0.6-1.8c-3.6-5.7-0.6-11.4,6-11.3c3.4,0,6.9,6,5.1,8.9c-1.6,2.6-0.5,3.9,5.5,6.4
		c4.4,1.8,4.9,2.5,3.4,4.4c-1.1,1.3-1.2,2.2-0.3,2.2c2,0,0.3,6.2-2.3,8.1c-1.8,1.3-1.8,1.8,0.1,3.3c1.8,1.5,3.3,0.8,8.3-3.4
		c3.4-2.8,5.6-5.2,4.9-5.2c-0.7,0,0-1,1.6-2.2c1.6-1.2,2.2-2.2,1.5-2.2c-0.8,0-0.4-0.6,0.7-1.3c2.6-1.7,6-0.4,6,2.2
		c0,2.5,3.2,2.7,5.6,0.3c2.4-2.4,2.2-4.1-0.4-4.1c-3.2,0-2.7-2.6,0.8-3.7c1.6-0.5,4-0.2,5.1,0.8c1.7,1.4,2.6,1.4,4.3-0.1
		c2.7-2.3,2.8-4.4,0.2-4.4c-1.2,0-2-1.8-2.1-4.5c-0.1-4,5.5-8.7,10.4-8.7c1.8,0,1.9,6.1,0.1,6.8c-3,1.2-2.5,4.5,0.8,5.6
		c3.9,1.3,3.7,3.6-0.4,3.8c-1.8,0.1-0.1,0.9,3.8,1.8c3.9,0.9,6.6,2.2,6,2.8c-0.6,0.6-0.4,1.1,0.4,1.1c0.8,0,2.4-1,3.5-2.3l1.9-2.3
		l1.9,2.6c1,1.4,1.5,4.1,1,6c-1.1,4.5,0.8,4.3,4.6-0.5c1.9-2.4,3.8-3.5,4.9-2.8c1.3,0.8,1,1.7-1.3,3.3l-3.1,2.2l2.4,1.7
		c3.1,2.2,1.4,6.6-3.1,8.3c-4.1,1.5-3.3,5.1,1.3,6.3c3.6,0.9,6-1.8,3.8-4.4c-1.7-2,1-3.4,4.7-2.4c1.6,0.4,2.1,1.7,1.6,4.4
		c-0.6,3.2-0.3,3.6,2.1,2.7c4.9-1.9,5.7-1.7,5.2,1.7c-0.3,2.5,0.3,3.3,2.6,3.3c4,0,3.9,4.6-0.2,7.1c-2.8,1.8-2.9,2.1-0.8,3.3
		c1.3,0.7,2,2.2,1.6,3.3c-0.4,1.1,0,2.5,0.9,3c1,0.6,2-0.2,2.5-2c0.4-1.7,1.4-3.2,2.1-3.3c4-0.7,4.9-0.2,4.9,2.4
		c0,1.9,1.1,3.1,3.3,3.4c2.5,0.4,3.3-0.3,3.3-2.6c0-5.5,2.5-3.1,5,4.8c1.4,4.3,2.4,8.4,2.2,9.1c-0.7,3.8,0.4,3.8,3-0.1
		c1.6-2.4,2.5-4.9,2.1-5.6c-0.4-0.7,0-2.2,1-3.4c1.4-1.7,1.3-2.3-0.3-2.9c-1.6-0.6-1.9-2.9-1.5-9.9c0.8-11.1,0.6-10.9,5.3-6.1
		c2.1,2.1,4.7,3.6,5.6,3.3c2.9-1,3.1-7.3,0.2-9.4c-1.6-1.2-1.9-1.9-0.7-1.9c1.1,0,1.5-0.9,1.1-2.1c-1.2-3.1,1.4-4.1,4.8-2
		c3.8,2.4,4.5,1.5,5.5-7.1c0.4-3.9,1.4-7.3,2.1-7.6c0.7-0.3,1.3-1.4,1.3-2.6c0-1.1,0.9-2.1,2.1-2.1c1.1,0,3.2-0.4,4.6-1
		c2-0.8,2.3-0.4,1.5,2.2c-0.7,2.1-0.3,3.4,1.1,4c1.2,0.5,2.6,3.7,3.1,7.4c0.7,4.9,1.5,6.4,3.1,5.8c1.1-0.4,2.1-0.3,2.2,0.3
		c1.1,13.3,0.4,21.3-2,23l-2.7,1.9l3.1,1c2.8,0.9,8.3-1.7,6.8-3.2c-1.1-1.1,9.4-10.7,11.7-10.7c1.2,0,1.8,0.7,1.3,1.5
		c-0.5,0.8-0.1,2.5,0.8,3.7c1.4,1.7,1.4,2.6-0.1,4.3c-1.5,1.8-1.4,2.2,0.6,2.2c2,0,2.1,0.5,0.8,3.1c-1.3,2.4-1.3,2.9,0.1,2
		c1.3-0.8,1.5-0.2,0.8,1.9c-1.1,3.5,1.8,6,3.6,3.1c1-1.6,1.7-1.6,3.9,0.3c4,3.4,8.9,1.6,7.4-2.7c-0.2-0.6,1.3-1.4,3.3-1.9
		c2.2-0.5,3.8-2.1,4.1-3.9c0.3-2.4,1.3-2.9,4.4-2.4l4,0.6l-3.4-2.8c-4.1-3.4-1.6-6.7,4-5.2l3.4,0.9l-2.4-3.7l-2.4-3.7l3.8-2.5
		c2.9-1.9,3.4-3,2.2-4.4c-2.1-2.6-0.5-6.2,3.1-7.2c2-0.5,2.7-1.6,2.1-3.1c-0.7-1.8,0.1-2.3,3.5-2.3c3.4,0,4.3,0.7,4.3,2.9
		c0,2.3,1,2.9,4.4,2.9c5.3,0,6.5,5.6,1.5,6.9c-5.3,1.4-3.2,3.8,2.6,2.9c3-0.5,6.5-0.2,7.7,0.5c1.5,0.9,1.6,1.4,0.4,1.4
		c-2.2,0-2.5,5.3-0.4,6.6c0.8,0.5,1.1,2.5,0.6,4.5c-0.5,2.1-0.3,3.6,0.7,3.6c0.9,0,1.3,1.9,1,4.4c-0.3,2.4,0.1,4.4,0.8,4.4
		c0.7,0,1.4-0.9,1.4-2.1c0-1.2,1.3-2.5,2.8-3c1.6-0.5,3.2-2.8,3.8-5.2c0.9-4.2,4-5.8,5.8-2.9c1.5,2.4,2.8,1.7,5.5-2.6
		c1.7-2.7,2.5-3.2,2.5-1.6c0,1.3,1.7,3.5,3.8,4.8c2.9,1.9,3.5,3.2,2.7,5.6c-1.4,4.5,3.1,0.8,5.6-4.6c1-2.1,3.3-4,5.1-4.3
		c1.8-0.3,3.3-1.4,3.3-2.6c0-1.2,0.7-2.1,1.5-2.1c2.6,0,1.6,8.4-1.6,13.9c-3.2,5.3-2.8,8.9,0.6,5c1-1.2,3.1-3.1,4.6-4.3l2.8-2.1
		l-1,3.2c-1.3,4,0.8,5.3,5.7,3.4l3.9-1.5l-0.9,4.3c-1,4.6,0.4,6.5,3.4,4.7c2.7-1.6,3.3-11.8,0.7-11.8c-2.4,0-2.6-2.3-0.5-3.7
		c1.1-0.7,1-1.5-0.1-2.9c-5-6,2.6-3.3,7.9,2.9l6.1,7l2-2.4c1.4-1.7,1.5-2.4,0.2-2.4c-1,0-1.5-0.8-1.2-1.8c0.3-1-0.2-3.4-1.3-5.4
		c-1-2-1.5-4.1-1.1-4.8c0.4-0.7-0.2-1.6-1.5-2.1c-1.8-0.7-1.9-1.4-0.5-3.6c1.3-2.1,1.3-3.2-0.1-4.6c-2.4-2.4-2.3-4.1,0.4-4.1
		c1.2,0,2.8,1.2,3.6,2.6c0.8,1.4,2.5,3.8,3.7,5.4l2.2,2.9l2.3-3.3c1.3-1.8,3.4-3.1,4.7-2.9c1.8,0.3,2.6-1.1,3.3-5.8
		c1.1-7.7,2.3-9,5-5.4l2.1,2.8l0.9-2.4c0.5-1.3,0.3-4.9-0.5-8c-3.4-13.4,0.2-20.4,6-11.9c1.8,2.7,2.6,2.9,4.1,1.5
		c1.2-1.1,1.3-1.8,0.3-1.8c-2.1,0-3.3-8.3-1.4-10.2c1-1,0.6-1.5-1.2-1.5c-2.1,0-2.3-0.4-0.9-2.1c1.4-1.6,1.2-2.4-0.7-3.5
		c-1.7-1-2-1.7-0.7-2.4c0.9-0.6,2.6-0.3,3.8,0.7c2.7,2.2,5.5,0.5,4.5-2.7c-0.6-1.8,0.5-3,4-4.3c4.2-1.6,4.4-2,2.2-3.3
		c-3.1-1.8-2-4.2,2-4.2c1.6,0,2.5-0.7,2-1.5c-0.6-0.9,1.7-1.5,5.6-1.5c3.6,0,6.8,0.7,7.1,1.5c0.3,0.9,2.5,0.5,5.7-1.1
		c5.5-2.8,6.3-6.9,1.5-8.1c-3.5-0.9-2.7-8.7,1.3-13.1c1.6-1.7,3-3.7,3-4.4c0-0.7,0.7-1.2,1.6-1.2c0.9,0,1.2,1,0.8,2.2
		c-0.5,1.2,0,2.2,1,2.2c2.9,0,6.1,6,3.9,7.3c-3.1,1.9,1.2,3.2,4.6,1.4c2.4-1.3,2.9-1.3,2,0.1c-0.8,1.3-0.2,1.5,2,0.8
		c3.9-1.2,4.2,1.6,0.5,4.9c-4,3.7-4.3,9.5-0.5,8.3c3.4-1.1,4.6,5.4,1.4,7.4c-1.2,0.7-0.9,1.6,0.8,2.9l2.5,1.8l-2.4,1.3
		c-2.2,1.2-1.4,6,1.7,10.5c1.1,1.5,7.8-6.8,7.8-9.7c0-1.8,0.8-3.3,1.7-3.3s2.8-1,4.1-2.1c3.1-2.8,7.3-0.6,4.8,2.5
		c-0.9,1.1-1.2,2.6-0.6,3.2c0.6,0.6,1.1,1.9,1.1,2.8c0,0.9,0.8,1.8,1.8,1.9c5.2,0.5,5.4,0.7,2.8,2.6c-1.7,1.3-2.1,2.4-1.1,3
		c2.6,1.6,1.7,3.7-1.6,3.7c-2.5,0-2.8,0.4-1.4,2c1.3,1.6,0.9,2.5-2.1,4.5c-2.1,1.3-3.3,3.1-2.8,3.9c2,3.3-0.8,8.6-4.5,8.6
		c-2.1,0-3.6,0.8-3.6,2c0,1.3,1.6,1.9,4.4,1.8c2.4-0.1,4.4-1,4.4-2c0-1,0.9-1.8,2.1-1.8c1.1,0,3.2-0.4,4.6-1
		c2.1-0.8,2.4-0.4,1.7,2.2c-1.1,4.2-0.2,4,3.8-0.7c3.7-4.2,6.9-3.7,5.7,1c-0.4,1.6-0.1,2.9,0.7,2.9c1.8,0,1.7,13.5-0.1,14.8
		c-1.2,0.9,1.8,7.1,3.4,7.1c0.4,0,3.4-3.3,6.6-7.3c5.4-6.8,9.5-9.3,9.5-5.9c0,0.8-0.7,1.5-1.5,1.5c-0.8,0-1.5,0.7-1.5,1.5
		c0,0.8,1.2,1.5,2.6,1.5c2.2,0,2.3,0.2,0.4,1.6c-2,1.4-2,1.5,0,1c1.2-0.3,2.8-2,3.6-3.8c0.8-1.8,2.7-3.2,4.2-3.2
		c2.3,0,2.5,0.3,0.8,2.3c-1.6,1.9-1.6,2.5,0.2,3.6c1.7,1.1,1.7,1.3,0.1,1.4c-1.6,0-1.7,0.4-0.1,2.3c1.6,1.9,1.4,2.6-1.3,4.5
		c-1.8,1.2-2.8,2.8-2.3,3.6c1.6,2.6,4.4,1.3,7.7-3.8c3.8-5.9,7-5.6,3.9,0.4c-1.3,2.6-1.6,4.5-0.6,5.4c2.1,2.1,1.7,3.8-0.9,3.8
		c-1.3,0-1.9,0.7-1.4,1.5c0.5,0.8,0.4,1.5-0.3,1.5c-0.7,0-1.3,1.7-1.4,3.8c-0.1,2.1-1.4,4.7-2.9,5.8l-2.7,2.1l2.5,0
		c1.4,0,4.3-2.6,6.6-5.8c2.3-3.2,4.9-5.8,5.9-5.9c2.6,0,2.3,2.4-0.4,3.4c-1.2,0.5-2.2,1.7-2.2,2.6c0,1.4,0.4,1.4,1.8,0
		c3.3-3.3,5.5-2,4.6,2.6c-0.6,2.9-0.3,4.4,0.8,4.4c1.3,0,1.3,0.8,0,3.2c-1.2,2.2-1.2,3.4-0.2,3.7c2,0.7-5.5,13.2-8.6,14.2
		c-1.6,0.6-2.1,2-1.6,4.5c0.5,2.9-0.5,5-4.8,9.3c-3,3.1-5.2,6.5-4.8,7.6c0.5,1.3,4.3-1.7,10.8-8.3c10.6-10.9,14.7-16.9,13.1-19.6
		c-1.5-2.4,0.8-1.9,3.8,0.8c2.3,2.1,2.7,2.1,2.7,0.2c0-1.2,1.6-2.6,3.7-3c3.1-0.6,3.7-0.2,3.7,2.9c0,3,0.5,3.5,3.4,2.8
		c2.6-0.7,3.4-0.2,3.6,2c0.1,1.8-0.9,3.2-3,3.7c-3.5,0.9-4.4,8.1-1.4,11.1c1.5,1.5,7.7-3.6,7.7-6.3c0-2,4-1.3,4.8,0.8
		c0.4,1.1-0.7,2.8-2.7,3.9c-2.7,1.4-3.2,2.4-2.1,4.4c1,1.9,0.6,3-1.6,4.5c-3.1,2.1-5.1,10.8-2.8,12.2c0.7,0.5,1,1.8,0.5,3
		c-0.5,1.3,0,2.1,1.4,2.1c1.2,0,2.6-1.6,3.1-3.7c1.9-7.4,8.9-2.6,8.6,6c-0.1,2.7,0.5,5,1.4,5c0.9,0,0.7,0.9-0.3,2.2
		c-1.1,1.3-1.2,2.2-0.3,2.2c0.8,0,2.6,0.4,3.8,0.9c2.2,0.9,6.5-6.4,7.4-12.6c0.2-1.2,2.2-2.5,4.6-2.9c2.3-0.4,3.9-1.4,3.5-2.2
		s-1.9-1.2-3.3-1c-3.2,0.5-3.2-0.3-0.2-4.9c1.3-1.9,1.9-4.2,1.5-4.9c-1.5-2.5,0.7-5.9,3.3-5c2,0.7,2.1,0.5,0.6-1.1
		c-4.3-4.6,2.7-5.5,7.6-1c2,1.9,1.4,6.9-0.9,6.9c-0.8,0-0.9,0.7-0.4,1.6c0.6,1,1.8,0.9,3.4-0.5c3.6-3.1,9-4.1,9-1.6
		c0,1.1,0.8,2.1,1.8,2.1c1.9,0-2.3,3.8-5.3,4.8c-1.1,0.4-1.1,1.2,0.2,2.8c1.9,2.3,1,7-1.3,7c-2.7,0-1.3,6.1,1.6,6.9
		c1.6,0.4,2.9,1.7,2.9,2.8c0,2.8,5.8,2.6,6-0.2c0.1-1.2,0.3-2.9,0.5-3.7c0.2-0.8,0.4-2.5,0.5-3.8c0.1-1.6,1.1-2,3-1.4
		c3.2,1,5.8-1.9,3.1-3.6c-1.3-0.8-1.2-1.3,0.5-2c1.8-0.7,2-1.7,0.9-4.6c-1.2-3.2-1-3.7,1.4-3.7c1.5,0,3.2,1.3,3.7,2.9
		c0.5,1.6,1.4,2.9,2.1,2.9c1.3,0,1.1-7.6-0.4-9.9c-0.6-0.9-0.4-2,0.4-2.5c0.8-0.5,1.8-0.2,2.3,0.7c1.3,2.2,5.1-1.1,5.1-4.4
		c0-1.4,1.5-3.5,3.3-4.7c2.7-1.8,2.9-2.6,1.5-4.3c-1-1.2-1.4-2.6-0.9-3c0.5-0.5-0.5-2.4-2.2-4.2c-5.5-6-1.4-8.4,4.4-2.6
		c1.7,1.7,3.4,2.7,3.9,2.2c0.5-0.5-0.4-1.8-2-3c-1.6-1.2-2-2.2-1.1-2.2c1.2,0,1.5-1.7,0.9-5.1c-0.6-3.9-0.3-5.3,1.5-6
		c1.3-0.5,2-1.4,1.6-2.1s0.8-0.8,2.6-0.3c2.8,0.7,3,0.5,1.4-1.4c-1.8-2.2-1.1-7,1.1-7c1.2,0,3.1,3.6,3.8,7.3c0.2,1.2,1.1,2.4,2,2.7
		s1.5,1.5,1.5,2.7c0,1.2,0.7,1.8,1.5,1.3c0.8-0.5,1.5,0.5,1.5,2.1c0,1.9,1.5,3.7,4,4.8c2.2,1,4.3,1.9,4.5,2.1
		c0.3,0.2-0.9,2.4-2.7,4.8s-2.8,5.1-2.3,5.9c0.5,0.8-0.9,3.1-3,5.1l-3.9,3.6l2.6,1c1.8,0.7,3.3,0,4.8-2.2c1.2-1.8,3.6-3.2,5.4-3.2
		c3.6,0,5.7,3.2,3.5,5.4c-1.6,1.6-2.2,12.5-0.9,14.7c0.5,0.8,0.1,1.9-1,2.3c-2.4,0.9-8.3,10.7-7.2,11.9c4,4,13.1-2,11.1-7.3
		c-0.3-0.9,1.8-2.3,4.7-3.2l5.3-1.6l-0.7,2.8c-0.4,1.6-0.1,3.2,0.7,3.7c0.8,0.5,0.7,1.7-0.4,3c-1.4,1.7-1.4,2.4,0.3,3.5
		c1.7,1.1,1.6,1.7-0.8,3.6l-2.9,2.3l3.7-0.6c2-0.4,4.8-1.1,6.3-1.7c2.3-0.9,2.5-0.6,1.7,2.7c-0.5,2.2-0.3,3.8,0.4,3.8
		c2,0,1.8,16.6-0.1,17.8c-0.9,0.6-1.1,1.5-0.5,2.1c0.6,0.6,3.1-0.4,5.5-2.2c4.7-3.5,8.7-3,5.7,0.7c-2.4,2.9-0.7,4.1,3,2.1
		c4.1-2.2,7-0.4,3.5,2.2l-2.6,1.9l2.8,1.1l2.8,1.1l-2.5,1.8c-1.6,1.2-1.9,2.2-0.9,2.8c2.5,1.5,1.8,3.3-1.6,4.2
		c-2.5,0.6-2.8,1.3-1.5,2.8c2,2.4-2.7,5.9-6.1,4.6c-1.6-0.6-2.1,0.3-2,3.7c0.1,5.1,1.9,5.6,6.8,2.2c4-2.8,5.9-1.5,3.6,2.3
		c-2.3,3.7-0.7,4.8,3.3,2.1c2.5-1.6,3.6-1.8,4.4-0.5c0.6,0.9,0.4,2.1-0.4,2.6c-0.8,0.5-1.4,3.2-1.2,6.1c0.2,2.8-0.4,6.3-1.2,7.8
		c-1.2,2.1-0.9,3.1,1.4,4.8c1.6,1.2,3.9,3,5.2,4c2.7,2.3,5.9,1.5,4.9-1.2c-0.4-1.1,0-2.4,0.8-2.9c1.8-1.1-1.5-5.2-4.2-5.2
		c-1.1,0-1.2-0.8-0.1-2.8c2.2-4.2,1.9-8.9-0.7-8.9c-1.2,0-2.2-0.7-2.2-1.5c0-0.8,0.6-1.5,1.2-1.5c0.7,0,2-1.6,2.9-3.7
		c2.2-4.8,4-4.6,5.9,0.7c3.4,9.6,11.2,0.6,11.1-12.8c0-7.5,0.4-9.1,2.6-9.7c1.5-0.4,2.6-2,2.6-3.9c0-2.7,0.6-3.1,3.8-2.3l3.8,1
		l-0.8-3.4c-0.5-1.9,0.1-4.6,1.3-6.2c1.5-2,1.6-3.3,0.5-4.7c-2.4-2.9,2.8-8.8,7.8-8.8c3.9,0,4.7,1.2,4.4,6.6
		c-0.1,1.5,0.3,1.5,1.5,0.4c2.6-2.6,4.4-1.9,3.5,1.5c-1.2,4.7,1.3,8.4,5.1,7.4c2.7-0.7,3-0.4,2.1,2c-1.2,3.1-1.3,3.5-1,6.1
		c0.3,2.9,3.1,2.1,3.1-0.9c0-1.5,0.4-3.1,1-3.6c1.5-1.5,4.9,2,4.9,4.9c0,2.4,7.8,7.3,11.6,7.3c1.9,0,7,2.7,10.7,5.7
		c1.4,1.1,3,1.6,3.6,1s0.1-1.6-1-2.3c-1.1-0.7-1.6-2.3-1.1-3.6c0.6-1.6-0.2-2.6-2.7-3.2c-2-0.5-3.2-1.5-2.8-2.2
		c0.8-1.3-0.3-3-5.7-8.9l-2.7-2.9l3-0.8c1.7-0.4,3-1.8,3-3c0-1.9,0.4-1.9,3.3-0.1c7.3,4.7,13.8,4.2,7.7-0.6
		c-14.1-11.1-14.3-22.3-0.3-16c3.4,1.5,9.5,3.1,13.5,3.5l7.3,0.7l-4-3.2c-2.2-1.8-4-4-4-5c0-2.5-4.7-7.6-6.9-7.6
		c-2.4,0-2.4-1.8,0-4.2c1.5-1.5,1.3-2.1-0.7-3.3c-3-1.7-3.4-5.7-0.5-5.7c1.1,0,2.8,1,3.8,2.2c2,2.4,5.9,3,5.9,0.9
		c0-0.7,0.4-2.4,0.9-3.7c0.6-1.6,0-2.3-1.8-2.4c-4.5-0.1-8.5-4.1-8.6-8.7c0-2.5-1.3-5.2-2.9-6.4l-2.8-2l3.2-1c3.7-1.2,6.1,0,6.1,2.9
		c0,1.2,1,2.1,2.2,2.1s2.2,0.7,2.2,1.5c0,0.8,1.3,1.5,3,1.5c1.6,0,3.3,0.9,3.8,2.1c1.3,3.3,4.8,4,3.9,0.9c-0.4-1.5,0.6-4,2.4-5.7
		c1.7-1.7,2.5-3.1,1.8-3.1c-2.7,0-3.1-4.8-0.6-6.6c2-1.5,2.2-2.3,0.8-4c-1-1.2-1.3-2.6-0.8-3.1c0.5-0.5-0.5-1-2.3-1h-3.2l1.8-3.3
		c1-1.8,1.7-3.8,1.5-4.4c-0.6-2.2,2.2-1,4.9,1.9l2.7,3l1.9-2.6c1.7-2.3,1.5-3-1.4-5.2c-2.7-2.1-2.9-2.6-0.9-2.6
		c4.2-0.1,4.7-3.2,1-6.1c-2.6-2-2.9-2.7-1.1-2.7c1.6,0,2.2-1.1,2-3.7c-0.2-2,0.2-4,1-4.5c0.9-0.5,0.7-1.7-0.3-2.9
		c-1.4-1.7-0.7-2.1,4.2-2.1c3.3,0,6.4,0.8,7.1,1.8c1,1.6,1.3,7.9,0.5,8.8c-0.2,0.2-0.5,3.2-0.7,6.6l-0.3,6.2l3.6-2.3
		c2-1.3,4.6-1.9,6-1.3c2.1,0.8,1.9,1.2-1.1,2.4c-2.7,1.1-3.1,1.8-1.8,3.1c1.3,1.3,2.4,1.3,4.4,0.1l2.6-1.6l-0.6,4.4l-0.6,4.4
		l3.3-1.8c2.2-1.2,3.8-1.3,4.7-0.3c1,1,0.5,2-1.4,3c-3.3,1.8-5,6.6-3.1,8.6c0.8,0.8-0.2,2.7-2.4,4.8c-4.4,4.1-4.7,5.9-0.9,5.9
		c3.1,0,3.8,6,1.4,10.7l-1.4,2.6l4.2-2.2c5.5-2.8,8.2-6.2,6.9-8.4c-0.8-1.3,0-1.5,2.8-0.8c2.9,0.7,3.9,0.4,3.9-1.2
		c0-1.2,1.4-3.1,3.1-4.3l3.1-2.2l-2.4-3.7c-2.1-3.2-2.2-3.7-0.2-3.7c1.2,0,2.3-0.5,2.3-1.1c0.7-7.2,2.4-9.3,4.9-5.9
		c1.2,1.7,2.9,2.2,5.2,1.6c2.6-0.7,3.1-0.4,2.2,1c-0.9,1.4-0.4,1.7,2,1.1c3.5-0.9,4.3,1.6,1.4,4.5c-1,1-1.2,1.8-0.5,1.8
		c0.7,0,0.1,1.3-1.4,2.9c-3,3.3-3.1,3.1,3.4,6.3l4.9,2.4l0.8-2.9c1.5-5.9,4.2-2.6,3.6,4.6c-0.1,1.3,1,2.7,2.5,3.1
		c2.6,0.7,3.4,5.7,1.2,7.8c-0.5,0.5-0.3,2.1,0.5,3.6c1.6,3-0.4,5.1-3.2,3.4c-1-0.6-1.3-0.4-0.7,0.5c0.5,0.9,0.3,2-0.5,2.5
		c-1,0.6-1,1.9,0,3.8c1.9,3.6,3.3,2.8,6.4-3.8c1.3-2.8,3-5.1,3.7-5.1c2.5,0,3.4,3.4,1.3,5c-2.1,1.6-2.9,11.1-0.9,11.1
		c0.6,0,1.1-1.3,1.1-2.8c0-4.8,2.7-4.8,7,0c3.6,4.1,4.5,4.4,7.4,2.9c1.8-1,3.2-1.1,3.2-0.3c0,0.8-0.8,1.7-1.8,2.1
		c-1.5,0.6-1.5,0.8,0,0.9c1,0.1,3-1.1,4.5-2.5c1.5-1.5,3.4-2.4,4.3-2.1c2.4,0.8,3.8-2.4,2-4.6c-0.9-1.1-1.2-3-0.7-4.3
		c0.6-1.6,0.1-2.4-1.3-2.4c-1.2,0-2.9-2-3.7-4.4c-1.7-5-0.4-5.8,2.4-1.5c2.9,4.6,4.7,3.4,4.7-3.2v-6.1l2.9,3.4
		c3.3,3.8,3.6,6.2,1.4,10.4c-2.5,4.7,4.1,12.3,10.9,12.5c2.9,0.1,5.3-0.4,5.3-1.2c0-0.7,1.5-1.3,3.4-1.3c4.4,0,10.4,5.1,8.9,7.5
		c-0.8,1.2-0.4,1.5,1.3,0.9c2.9-1.1,7.1,0.2,6.1,2c-0.4,0.7,0,1.7,0.9,2.2c0.9,0.6,2.2,0.1,2.9-1c1.5-2.3,1.6-2,1.9,3.7
		c0.3,6.2,5.9,6.6,12.6,0.8c6.1-5.2,6.4-5.3,10.1-1.2l2.9,3.2l1-2.6c0.6-1.5,0.4-4.4-0.4-6.5c-2-5.4,0.1-9.1,7.2-12.5
		c6.3-3,8.9-6.6,4.8-6.6c-2.6,0-3-1.6-0.9-3.7c0.8-0.8,1.7-4,2-7.1c0.6-6.1,2.8-7.9,10.2-8c2.6-0.1,4-0.9,4-2.3c0-1.2-0.7-2-1.5-1.8
		c-0.9,0.2-2.4-2.1-3.5-5l-1.9-5.4l3.8-0.4c2.9-0.3,3.8-1.3,3.8-4.1c0-2.5,0.9-3.8,2.9-4.1c6.1-1,6.5-1.4,5.2-6
		c-1.8-6.1,1.9-9.5,5.3-4.7c1.8,2.6,2.7,2.9,4.3,1.5c2.8-2.3,2.6-3.2-1.7-7.9c-2.1-2.2-3.4-5-2.9-6.2c1.1-2.9,4.1-1.7,5.9,2.2
		c0.8,1.8,2.3,3.2,3.3,3.2c2.6,0,2.3-1.5-0.7-3.8c-2.1-1.5-2.2-2.3-0.7-3.7c2.3-2.4,2.3-4.2,0-4.2c-1,0-3.4-1.6-5.2-3.6l-3.4-3.6
		l5.1-2.4c4.5-2.1,5-2.9,3.8-5.9c-1.5-4-1.7-3.9,4.3-1.8c3.6,1.3,5.2,1.2,7.2-0.4l2.5-2l-2.1,2.6c-2.6,3.3,0.2,7.2,3.1,4.3
		c2.8-2.8,4.4-2.1,3.3,1.4c-0.8,2.6-0.5,3,1.8,2.4c1.9-0.5,3.3,0.3,4.4,2.6l1.6,3.3l-4.9,0.9c-5.6,1.1-6.3,2.9-1.9,5.2
		c2.4,1.3,3.6,1.1,5.6-0.7c2.8-2.6,6.7-3.2,5.2-0.8c-0.5,0.8,0.1,1.9,1.4,2.3c3,1.2,1.4,3.5-2.4,3.5c-1.7,0-2.7,0.4-2.2,0.8
		c0.5,0.5,0.3,2.8-0.4,5.1c-0.7,2.5-0.7,4.3,0.1,4.3c2.7,0,1.3,4.7-1.6,5.5c-1.9,0.5-2.7,1.6-2.2,3c0.5,1.2-0.3,3.4-1.6,4.9
		c-3.8,4.2-1.3,4.8,4,1c5.7-4.1,16-14.5,16-16.2c0-0.6,1.3-1.2,2.9-1.2c3.4,0,3.9,2.6,0.7,3.9c-1.2,0.5-1.8,1.4-1.4,2.1
		c0.4,0.7,0,1.3-0.9,1.3c-1.2,0-1.2,0.7,0.2,2.3c1.6,2,1.5,2.6-0.6,3.7c-1.4,0.8-2.1,2.1-1.6,2.9c1.3,2.1-3.7,7.1-7,7.1
		c-1.6,0-3.3,1.6-4.1,3.7c-1.4,3.8-4.9,4.9-6.7,2.1c-2.7-4.3-7.1,13.8-5.5,22.3c1.1,5.8,15,11.6,14.6,6.1c-0.1-1.5,1.5-3,4.2-3.9
		c5.4-1.8,6.3-3.1,5.5-7.7c-0.5-2.6,0-3.6,1.7-3.6c2.8,0,5.4,5.8,4.3,9.9c-1.2,4.4,5.1,5.6,6.7,1.2c1.3-3.3,11.9-15.5,13.6-15.5
		c0.5,0,1.9,1,3.2,2.3c1.3,1.3,2.3,1.8,2.3,1.1c0.1-3.6,2.7-5.4,5.1-3.4c2.1,1.7,2.6,1.7,3.7-0.1c1-1.6,1.9-1.7,3.9-0.5
		c1.9,1.2,3.3,1.2,5.1,0c3.5-2.2,7.4,1.3,4,3.6c-1.8,1.2,2.4,1.2,9.8-0.1c0.2,0,0-1-0.5-2.1c-0.4-1.1-0.1-2.5,0.8-3s1.6,0.1,1.6,1.3
		c0,1.3,1.3,2.3,3.1,2.3c2.4,0,2.7-0.4,1.5-1.9c-2.1-2.6,0.6-5.4,5.2-5.4c4,0,6.9-6,5.6-11.3c-1-3.9,1.5-4.5,5.9-1.3
		c2,1.5,3.4,1.6,4.7,0.5c1.5-1.2,1.2-2-1.1-3.6c-3.7-2.6-3.3-11.6,0.5-11.2c2,0.2,3-1.8,2.6-5.4c-0.2-2.3,5.7-4.3,6.5-2.2
		c0.5,1.2,2.1,2.2,3.6,2.2c3.2,0,3.6,1.6,1,4.1c-1.4,1.4-1.4,1.8,0,1.8c1,0,3.1-1.3,4.7-3c1.6-1.6,3.7-2.5,4.5-2
		c0.9,0.5,0.4-0.8-1-2.9c-1.4-2.1-3.4-3.8-4.5-3.8c-2.5,0-2.7-6.4-0.2-8.5c1.3-1.1,2.6-1,4.4,0.3c2.8,2,3.4,5.2,1.1,5.2
		c-0.8,0-1.5,0.7-1.5,1.6c0,0.9,2.1,1.4,4.8,1.1c3.9-0.4,4.7-1,4.4-3.8c-0.4-3.4,1.6-4.1,6.1-2.4l2.4,0.9l-2.5,2.7
		c-1.4,1.5-1.9,2.8-1.2,2.9c0.7,0.1,2.6,0.4,4.3,0.7c7.7,1.5,10.2,1.3,10.2-0.8c0-3.1,5.7-2.8,6.3,0.4c0.3,1.4-0.4,2.6-1.5,2.6
		c-2.8,0-5.6,5-4.1,7.4c1,1.6,1.4,1.6,2.2-0.5c1.2-3.1,2.7-3.2,5.7-0.2c1.3,1.3,3.4,1.9,4.7,1.4c1.3-0.5,3.2-0.2,4.3,0.8
		c1.1,0.9,3,1.3,4.2,0.8c1.4-0.5,2.2,0,2.2,1.3c0,2.5,5.5,2.9,8.8,0.5c1.9-1.4,1.9-1.5,0-0.9c-1.2,0.4-3.7-0.5-5.5-1.9l-3.2-2.6
		l3.3-0.9l3.3-0.9l-4.4-3.6c-2.4-2-6.6-5.4-9.3-7.6c-2.7-2.2-7.9-4.7-11.6-5.7c-3.7-0.9-7-2.6-7.4-3.6c-0.4-1.3,0.2-1.6,2-0.9
		c1.6,0.6,3.7,0,5.5-1.6c1.6-1.4,3.3-2.4,3.8-2.2c0.5,0.2,0.9-0.3,0.9-1.2s1.2-2.5,2.7-3.5l2.7-1.9l-4.4-1c-5.8-1.3-9.2-5.1-4.8-5.3
		c7.6-0.5,15.2-5,14.1-8.5c-0.5-1.5-0.2-3.2,0.7-3.7c0.8-0.5,1.5,0.1,1.5,1.3c0,3,0.9,2.9,6.2-0.9l4.5-3.2l-1,3.9
		c-1.1,4.3,0.6,5.2,3.4,1.8c1-1.2,2.7-1.8,3.8-1.3c1.1,0.4,4.1-0.9,6.7-3.1c4-3.3,4.9-3.6,7-1.9c3.3,2.8,13.6,5.6,15.5,4.2
		c3.3-2.4,9.3-1.7,10,1.3c0.5,1.8,0,2.9-1.2,2.9c-1.1,0-2.4,0.7-2.9,1.5c-0.6,0.9,1.3,1.3,5,1c6.4-0.5,6.8-0.1,4,3.6
		c-1.2,1.6-3.1,2.2-5.8,1.7c-4.2-0.8-8.9,1.9-7.5,4.2c0.5,0.8-0.9,3-2.9,4.9c-6.7,6.2-4.1,11.4,3.8,7.4c2.5-1.3,5.6-2.3,6.7-2.3
		c1.2,0,3.4-1.7,5-3.7c1.6-2,3.5-3.3,4.2-2.8c2.2,1.3,1.5,12-0.8,14.3c-3.8,3.8-5.3,9.4-2.8,10.3c1.2,0.5,1.8,1.4,1.4,2.2
		c-0.4,0.7,0.5,1.7,2.1,2.1c3.5,0.9,13.1-1.5,13.1-3.3c0-1.9-3.9-4.6-6.1-4.2c-3.4,0.7-2.2-5,1.3-6.3c4.3-1.6,4.3-0.2,0,1.7
		c-2.8,1.2-2.7,1.3,1.2,0.6c2.5-0.4,7.2-0.2,10.5,0.5c8.1,1.8,11.2-0.2,6.4-4.2c-1.9-1.6-4.4-2.9-5.5-2.9s-2-0.5-2-1.1
		s2-1.1,4.4-1.1c3.2,0,4.4,0.7,4.4,2.6c0,1.4,0.8,2.6,1.8,2.6s2.9,2.2,4.1,4.8c1.6,3.3,3.5,4.9,6.3,5.2c4,0.5,4.4,0.9,5.9,7.7
		c1.4,6.2,7.6,4.2,7.3-2.4c-0.1-2.7-0.6-5.6-1.2-6.4c-2.3-3.7,4.9-4.7,7.3-0.9c1.3,2,3.3,3.7,4.4,3.7s2,1,2,2.2
		c0,2.7,2.5,2.8,7.7,0.4c3.2-1.5,3.8-2.6,3.2-6.2c-0.4-2.4-0.9-5.6-1.1-7.1c-0.2-1.5-1.6-3.6-3-4.7c-1.4-1-2.7-3.6-2.8-5.6
		c-0.1-2.3-1.5-4.3-3.5-5.2c-3.3-1.5-4.6-4.5-1.9-4.5c0.8,0,1.8-1.3,2.3-2.9c1.1-3.4,6.6-1,6.6,2.9c0,1.2,2.1,3.1,4.6,4.2
		c2.5,1.1,4.9,3.3,5.3,4.8c1,3.9,7.1,3,6.5-0.9c-0.3-1.5,0.2-3.2,1-3.7c2.1-1.3,0.3-8.9-2.1-8.9c-1.1,0-2-0.9-2-2
		c0-1.1-1.3-3.1-2.8-4.5c-1.6-1.4-2.5-3.4-2.1-4.5c0.4-1.1-0.5-2.3-2-2.8c-4.2-1.3-3.6-8.8,0.7-9.4c2.2-0.3,3.3,0.3,3.3,1.8
		c0,2.2,4.2,5.3,7.2,5.3c0.9,0,1.6-1,1.6-2.2c0-3.2,2.1-2.7,6.1,1.4c4.3,4.5,5.7,4.6,5.6,0.4c-0.1-4-2.6-7.5-6.4-8.9
		c-2-0.8-2.4-1.5-1.2-2.7c1.2-1.2,1-2.5-0.6-4.9c-1.3-2-1.6-3.7-0.8-4.2c2.4-1.5,6.2,0.8,7.6,4.5c0.9,2.3,2.5,3.5,4.9,3.5
		c4.2,0,6.5-2.7,3.8-4.4c-1-0.6-1.4-1.8-0.9-2.7s0.3-1.9-0.6-2.5s-1.1-1.5-0.7-2.3c0.5-0.7,0.1-2.6-0.7-4.2c-1-1.8-1-3.2-0.1-3.7
		c0.8-0.5,1-1.8,0.6-3c-0.5-1.3,0-2.1,1.4-2.1c1.2,0,2.4-0.6,2.7-1.2c0.7-1.9,8.5-3.5,8.5-1.7c0,0.8,0.9,1.5,2.1,1.5
		c1.4,0,1.8,1,1.2,3.3l-0.8,3.3l2.8-2.5c3.9-3.4,7.4-1.3,5.1,3c-0.9,1.7-1.2,3.1-0.7,3.1c0.5,0,0.1,1-0.9,2.2
		c-2.1,2.6-1.4,3.7,2.5,4c4.6,0.3,6.7,6.5,3.1,9c-1.6,1.1-2.5,2.8-2,3.7c0.5,0.9,0,2-1.3,2.5c-3.1,1.2-2.9,4.4,0.6,7.8
		c4,4,2,9-4.1,10.6c-3.3,0.8-4.6,2.1-4.6,4.2c0,4.4,15-2.3,17.3-7.8c0.3-0.6,1.3-1.2,2.4-1.2s2.7-1,3.7-2.2c2.5-3.1,4.4-2.7,4.4,0.8
		c0,1.8,1.4,3.5,3.7,4.4c3.4,1.3,5.2,5.9,2.3,5.9c-0.7,0-1,4-0.7,8.8c0.5,6.9,0.1,9-1.6,9.7c-1.2,0.5-1.8,1.5-1.3,2.2
		s-0.1,2.5-1.4,3.9c-1.5,1.6-2.1,4.7-1.7,9.1c0.6,8.5,0.6,8.5,2.3,5.5c1.7-2.9,7.4-3.5,6.8-0.8c-0.7,3.4,4.7,2.9,6.1-0.5
		c3.7-9,13.7-13.8,10.9-5.2c-0.6,1.8-1.2,4.6-1.4,6.2c-0.2,1.6-0.8,6.7-1.4,11.3l-1.1,8.3l3.9,1c2.7,0.7,3.7,1.7,3.1,3.2
		c-0.7,1.7,0.1,2,3.4,1.6l4.2-0.6l-1.3,4.5c-0.8,2.8-0.7,4.7,0.2,5c2.2,0.7,1.8,4.6-0.5,4.6c-2.9,0-7.4,5.3-5.4,6.5
		c4.8,3,8.9,2.3,8-1.2c-0.6-2.5-0.2-3.8,1.6-4.4c2-0.8,2.1-1.4,0.7-3c-2.8-3.3-1.3-8.9,2.1-8.4l2.9,0.4l-2.7-2.1l-2.7-2.1l2.4-1.3
		c2.6-1.4,1.6-6.3-1.2-6.3c-2.1,0-5.9-5.8-4.6-7.1c0.5-0.5,1.6,0.2,2.4,1.6c0.8,1.4,2.5,2.5,3.7,2.5c1.6,0,1.9-0.5,0.9-1.8
		c-1.9-2.4-3.3-11.8-2.3-15.5c0.7-2.8,7.2-5.3,8.5-3.2c0.4,0.6,2.3,0.8,4.2,0.4c4.6-0.9,6.3,3.7,3.4,9.4c-2.7,5.4-1.8,7.5,3.1,6.6
		c3.3-0.6,3.7-0.4,2.2,1.4c-1.6,2-1.5,11,0.2,12.7c0.4,0.4-0.9,2.9-2.9,5.6c-2.3,3-3.8,7.1-4,10.7c-0.3,5.9-1.6,7.6-3,4.1
		c-0.4-1-0.8-0.3-0.9,1.7l-0.1,3.5l6.7-0.9c10.4-1.4,12.6-6.7,6.7-16.3l-2.6-4.3l3.4-3c1.9-1.6,3.7-4.6,4.1-6.6l5.1,181h-2341.2
		L-1129.9,779.1z M442.6,1017.9c1.4-3.5-0.5-4.2-2.4-0.8c-1.1,2.1-1.2,3.1-0.1,3.1C441.1,1020.2,442.2,1019.1,442.6,1017.9
		L442.6,1017.9z M251.6,982.5c0.4-9-0.4-10.2-5.3-8c-4.7,2.1-4.9,7.7-0.4,10C251,987,251.4,986.8,251.6,982.5z M568.2,970.5
		c2.2-4.2,1.4-6.7-1.6-4.7c-2.1,1.4-3.9,9-2,9C565.3,974.8,567,972.9,568.2,970.5L568.2,970.5z M252,965.7c-1.9-3-5-1.2-3.4,2
		c1.3,2.4,1.9,2.7,2.9,1.2C252.2,967.8,252.4,966.4,252,965.7z M575.7,957.9c-0.4-1,0.2-2.2,1.4-2.7c3.2-1.2,2.5-3.2-1.6-5.1
		c-5.4-2.5-5.9-2.2-7.6,3.5l-1.6,5.2l3.2,1.2C573.4,961.5,576.7,960.4,575.7,957.9L575.7,957.9z M590.9,960.4c0-0.7-0.7-3.4-1.7-6
		c-1.3-3.8-1.3-5,0.3-6c1.1-0.7,1.5-1.7,0.9-2.3c-2.7-2.7-5.7,3.5-4.7,9.6C586.6,960.7,590.9,964.7,590.9,960.4z M312.1,958.5
		c3.9-1.8,4.2-4.6,0.6-5.3c-1.1-0.2-2.8,1.3-3.8,3.3C307.1,960.7,307.1,960.7,312.1,958.5z M247.1,957.1c0-0.9-1.3-1.3-2.9-0.9
		c-1.6,0.4-2.7,0.1-2.6-0.7c0.2-0.8-0.5-1.8-1.5-2.2c-1.9-0.7-2.6,2.7-0.9,4.5C240.9,959.3,247.1,958.8,247.1,957.1z M147.7,948.4
		c1.6-0.8,2.8-2.3,2.8-3.2c0-0.9,1.1-2.9,2.4-4.3c1.9-2.1,2-2.7,0.4-2.6c-1.1,0-3.9,2.7-6.1,5.9C143,950.2,143.1,950.9,147.7,948.4z
		 M-431.5,930c0.5-0.5-0.1-2.8-1.5-5c-2-3.3-2.1-4.5-0.6-6.3c2-2.4,0.9-8.2-1.5-8.2c-0.8,0-1.3,1.2-1.1,2.6c0.2,1.4-0.1,4.1-0.8,6
		c-0.7,2.1-0.5,4.1,0.5,5c0.9,0.9,1.6,2.8,1.6,4.2C-434.8,930.9-433.2,931.7-431.5,930L-431.5,930z M527.6,917.4
		c-0.7-2.1-3-1.8-3.8,0.4c-0.3,0.8,0.6,1.5,2,1.5C527.1,919.2,528,918.4,527.6,917.4z M532,911.2c0.4-5.6-0.9-7.2-4.1-5.1
		c-1.8,1.2-1.8,1.6,0.1,2.8c1.8,1.2,1.9,1.7,0.2,2.8c-2.2,1.4-1,4.6,1.7,4.6C530.9,916.3,531.8,914,532,911.2L532,911.2z
		 M934.8,908.8c0-1.5-0.6-2.8-1.3-2.8c-2.1,0-4.9,4.1-3.9,5.7C931,914,934.8,911.9,934.8,908.8L934.8,908.8z M970.7,909.6
		c-1.6-1.2-2.7-3.1-2.5-4.2c0.6-2.9-2.4-4.2-4.9-2.1c-2.3,1.9,1.3,8,3.9,6.4c0.6-0.4,1.6-0.1,2.1,0.8c0.5,0.8,1.7,1.5,2.7,1.4
		C972.8,911.8,972.3,910.8,970.7,909.6L970.7,909.6z M-22.1,906.1c-2-3.7-4-4.9-5.2-3c-1.2,1.9,1.9,5.8,4.6,5.8
		C-21.1,909-21,908.3-22.1,906.1z M942.1,904.6c0-0.8,1.4-1.5,3-1.5h3l-2.9-3.7c-1.6-2-3.4-5.7-3.9-8c-0.5-2.4-1.8-4.3-2.9-4.3
		c-2.9,0-4.1,2.7-2.3,5c1.2,1.4,1,2.4-0.6,3.8c-3.2,2.7-2.7,4.8,0.8,3.6c2.7-0.9,2.9-0.6,1.5,2c-1.2,2.2-1.1,3.1,0.2,3.7
		C941.1,906.3,942.1,906.1,942.1,904.6L942.1,904.6z M-31,895.7c0-2.7-5.5-7.7-7.3-6.5c-1,0.6-1,9.4-0.1,11.9
		C-37.9,902.4-31,897.4-31,895.7L-31,895.7z M973.1,897.9l4.4-2.3l-2.6-2.9l-2.6-2.9l-3.4,3.9C963.3,900.3,965,902.1,973.1,897.9
		L973.1,897.9z M869.3,894.5c-2.5-6.5-11.1-8.6-12.8-3.1c-1.5,4.6,1.3,6.7,7.9,6.1C869.1,897.1,870,896.5,869.3,894.5L869.3,894.5z
		 M1162.7,896.1c0.3-1-0.5-1.7-1.7-1.7c-1.3,0-2.3,1-2.3,2.3C1158.7,899.2,1161.8,898.8,1162.7,896.1z M923.7,892.6
		c6.7-1.8,9.3-7,3.4-7c-1.5,0-4.7-1-7.2-2.3l-4.5-2.3l-2.3,2.3l-2.3,2.3l3-0.8c1.7-0.4,3.4-0.1,3.9,0.6c0.5,0.8-0.8,1.8-2.8,2.4
		c-3.5,0.9-4.8,3.6-2.7,5.7C913.8,894.7,916.3,894.6,923.7,892.6L923.7,892.6z M-300.9,885.8c-1.6-1.6-3.7,2.3-2.7,4.9l1,2.7
		l1.2-3.4C-300.7,888.1-300.5,886.2-300.9,885.8L-300.9,885.8z M-210.6,890.8c0.2-0.7-0.5-1.6-1.5-2c-1-0.3-1.8,0.5-1.8,1.8
		C-213.9,893.1-211.2,893.2-210.6,890.8z M707.5,888.4c0.4-2.9-1.6-4-3.1-1.6c-1,1.6,0.7,6.4,1.8,5.3
		C706.7,891.7,707.3,890,707.5,888.4z M966.6,888.4c1.3-2.5,1.3-4,0.2-5.4c-2.6-3.2-5.3-2.1-6.3,2.5
		C958.7,893.3,963.1,895.3,966.6,888.4z M1015.9,887.6c1.3-3.3,1.2-3.5-1.3-3.5c-1.2,0-2.8,1.3-3.7,2.9c-1.3,2.5-1.1,2.9,1.3,2.9
		C1013.7,889.9,1015.4,888.9,1015.9,887.6z M977.2,885.1c0-4.4-1.4-5.8-3.9-3.7c-1.4,1.2-1.5,2.4-0.4,4.4
		C975,889.5,977.2,889.2,977.2,885.1L977.2,885.1z M-42.1,881c4.2-4.9,4.8-7.2,2-7.2c-1.6,0-8.4,8.9-8.4,10.9
		C-48.5,886.8-45.4,885.1-42.1,881z M-18,882.1c0.3-1.4-0.5-2.4-1.7-2.4c-2.7,0-4.4,2.4-3.1,4.5C-21.5,886.3-18.6,885.1-18,882.1
		L-18,882.1z M-57.1,876c0.6-2.3,0.8-4.5,0.4-4.9c-1.2-1.2-3.3,1.8-4.4,6.2C-62.5,883.1-58.6,881.8-57.1,876L-57.1,876z
		 M-65.3,873.1c3.9-9.3,1.7-16.7-3.6-11.9c-2.3,2.1-2.6,3.4-1.6,6.3c0.8,2,1.4,5.2,1.4,7.2C-69,879.6-67.8,879.1-65.3,873.1
		L-65.3,873.1z M1185,874.9c0-1.9,0.8-4.3,1.8-5.4c1-1.1-0.3-0.5-2.9,1.3c-5.1,3.5-5.9,5.3-2.9,6.5
		C1184.4,878.6,1185,878.2,1185,874.9z M945.1,870.8c0-3-0.6-4.3-1.8-3.9c-2.6,0.9-3.2,5.6-0.9,7.1
		C945.1,875.7,945.1,875.8,945.1,870.8L945.1,870.8z M1022.6,870.2c0.4-0.8-1.2-1.4-3.5-1.5c-2.3,0-4.6,0.9-4.9,1.9
		C1013.4,872.9,1021.4,872.5,1022.6,870.2z M-277.4,867.2c2.2-2,4.8-3.7,5.7-3.7c2.1,0,4.3-11.6,2.5-13.4c-0.7-0.7-2.4,0-3.9,1.7
		c-2.7,3-6.6,4-6.6,1.7c0-0.7-0.9-1.7-2.1-2.1c-1.6-0.6-2.1,0.5-2,5c0,3.5-0.9,6.9-2.4,8.6l-2.5,2.7l2.7,1.6
		C-282.3,871.5-281.8,871.3-277.4,867.2L-277.4,867.2z M-542.3,863.9c-0.4-0.4-2,0.3-3.7,1.5c-1.7,1.2-2.6,2.5-2,3.1
		c0.5,0.5,2.2-0.1,3.7-1.5C-542.8,865.7-541.9,864.3-542.3,863.9L-542.3,863.9z M-545.8,862.2c1.9-1.6,2.6-2.9,1.6-2.9
		c-1,0-1.8-1.4-1.8-3.1c0-1.8,0.7-2.8,1.8-2.4c2.7,1,9.9-3.6,9.7-6.2c-0.2-3.1-2.4-9.8-2.8-8.5c-0.2,0.6-0.4,1.8-0.5,2.7
		c-0.1,0.9-3.8,3.5-8.2,5.9c-4.4,2.3-8.1,5.1-8.1,6.1c0,1-0.6,2.8-1.3,3.9c-1,1.7-0.4,1.9,3.4,1.1l4.7-0.9l-4.1,3.6l-4.1,3.6l3.1,0
		C-550.7,865-547.7,863.8-545.8,862.2z M-316.9,861.8c0-1.8-0.4-3.6-1-4c-2.9-2.1-3-7.3-0.1-7.3c4.4,0,5-2.3,1-4.1
		c-2.7-1.2-3.9-1.1-5.2,0.5c-1.5,1.8-2,1.8-3.9-0.1c-2.9-2.9-4.4-2.7-5.3,0.8c-0.6,2.1,0,2.9,1.8,2.9c3.3,0,6.8,4.1,6.2,7.4
		c-0.3,1.8,4.4,7.2,6.3,7.2C-317,865.1-316.9,863.6-316.9,861.8L-316.9,861.8z M939.1,860c1.4-1.7,1.1-2.4-1.2-3.7
		c-6.5-3.5-11.8-0.6-7.2,4C933.1,862.7,937,862.6,939.1,860z M962.8,854.4c-1.6-1.6-6,0.3-6,2.6c0,1.5,0.8,1.5,3.6,0.2
		C962.3,856.3,963.4,855,962.8,854.4z M929.1,852.4c1.7-2,1.6-2.3-0.8-1.8c-1.5,0.3-3,1.4-3.4,2.4
		C924.1,855.6,926.8,855.2,929.1,852.4z M1126.3,852.8c1.3-1.5,1.2-2.4-0.4-3.7c-1.6-1.3-2.2-1.2-2.9,0.7
		C1121.1,854.8,1123.1,856.7,1126.3,852.8L1126.3,852.8z M-778.7,845.9c0-0.8-1-1.4-2.2-1.4c-2.3,0-2.9,1.7-1.3,3.4
		C-781,849.1-778.7,847.8-778.7,845.9L-778.7,845.9z M-543.6,842.1c-1.6-1.6-8.3,1.1-8.3,3.3c0,1.9,0.6,1.9,4.5-0.1
		C-544.9,843.9-543.2,842.5-543.6,842.1L-543.6,842.1z M-369,846.3c0-0.7-1-2.5-2.1-4l-2.1-2.8l0,3c0,1.7,0.4,3.5,0.9,4
		C-371,847.9-369,847.7-369,846.3L-369,846.3z M1133.4,844.6c1.3-2,1.3-3.1,0.2-3.8c-1.7-1-4.1,1.8-4.2,4.9
		C1129.3,848.4,1131.3,847.9,1133.4,844.6z M-525.1,840.9c0.5-1.3-0.1-2.6-1.4-3.1c-2.9-1.1-4.2,0.2-3.1,3.1
		C-528.4,843.7-526.2,843.7-525.1,840.9L-525.1,840.9z M-540.2,836.4c1-1.3,3.8-3.3,6-4.4c2.8-1.5,4.1-3.3,4.1-5.8
		c0-4.7-2-4.6-8.6,0.5c-2.9,2.3-6.5,4.6-7.9,5.1s-2.6,1.6-2.6,2.4c0,0.8,1,1.1,2.2,0.6c1.6-0.6,2-0.2,1.3,1.5
		C-546.7,839.5-542.8,839.5-540.2,836.4L-540.2,836.4z M-543.4,824.7c0.3-1.5,1.9-4.3,3.5-6.1c1.7-1.8,2.5-3.3,1.8-3.3
		c-2.2,0-6.6,4.8-6.6,7.3c0,1.3-0.8,3.3-1.8,4.3c-1.5,1.6-1.4,1.8,0.4,1.3C-544.9,827.8-543.7,826.2-543.4,824.7z M-938.8,810.3
		c-0.5-1.3-1.9-2.3-3.1-2.3c-1.8,0-1.9,0.6-0.5,3.7C-940.6,815.7-937.2,814.4-938.8,810.3L-938.8,810.3z M-1089.9,812.5
		c0.4-0.7-0.5-1.6-2.1-2.1c-3.2-0.8-5.4,1.2-2.6,2.4C-1091.7,814-1090.7,813.9-1089.9,812.5L-1089.9,812.5z M-546.8,811.1
		c-0.4-0.7,0.2-1.7,1.5-2.2c1.3-0.5,1.9-1.5,1.4-2.4c-0.5-0.8,0.4-3.4,2.1-5.7c1.7-2.3,3.4-7.4,4-11.3c0.5-3.9,1.6-7.9,2.4-8.9
		c2.1-2.7-2.5-2.4-4.8,0.4c-1,1.2-2.6,2.2-3.6,2.2c-2.2,0-6.1,6.9-4.7,8.3c0.5,0.5,1.9-0.3,3.1-1.8l2.1-2.8l-0.9,3.7
		c-0.5,2-1.5,4.5-2.3,5.4c-0.8,1-1.4,4.1-1.4,7c0,2.8-0.6,5.5-1.3,6c-1.6,1-0.3,3.6,1.8,3.6C-546.6,812.4-546.3,811.8-546.8,811.1
		L-546.8,811.1z M-554.9,800.5c0-0.7-0.7-1.3-1.6-1.3c-0.9,0-1.3-1.3-0.9-2.9c0.9-3.3-0.4-3.8-3.1-1.2c-3.1,3.1-2.1,6.7,1.9,6.7
		C-556.6,801.8-554.9,801.2-554.9,800.5z M-907.2,799.8c1.2-1.2-0.4-5-2-5c-0.7,0-1.3,1.3-1.3,2.9
		C-910.5,800.6-909,801.6-907.2,799.8z M-569.4,797.7c3.5-1.8,2.4-4.3-1.9-4.3c-1.7,0-2.7,0.4-2.1,1s0.2,1.8-0.7,2.9
		C-576.2,799.7-573.6,799.9-569.4,797.7L-569.4,797.7z M-891.5,790.2l-2.9-2.4l2.6-0.7l2.6-0.7l-2.7-0.2c-1.6-0.1-3,1.1-3.5,2.8
		c-0.4,1.6-1.4,2.9-2.1,2.9s-0.5,1.3,0.4,2.8l1.7,2.8l3.3-2.4l3.3-2.4L-891.5,790.2z M-640.5,787.6c-0.3-1.8,0.5-3,2.3-3.5
		c2.9-0.7,4-3.9,1.4-3.9c-3.3,0-8.3,7.3-6.4,9.3C-641.3,791.3-640,790.4-640.5,787.6z M-558.8,774c0.5-1.8,0.6-3.5,0.2-3.8
		c-1.2-1.2-5.3,4.1-4.4,5.6C-561.5,778.2-559.7,777.5-558.8,774z M-588.6,769.5c0-3-3.7,0.2-4.1,3.4l-0.4,3.5l2.2-2.8
		C-589.6,772.1-588.6,770.3-588.6,769.5z M-1074.4,773c0-1.6-3.8-3.2-5-2c-1.8,1.8-0.8,3.3,2.1,3.3
		C-1075.7,774.3-1074.4,773.7-1074.4,773z M-619.3,771.3c0.9-1.7,1.4-4.4,1.1-6l-0.5-3l-3.7,3.2c-2.4,2.1-3,3.5-1.9,3.9
		c1,0.4,1.4,1.7,0.9,2.8C-624.4,775.5-621.1,774.7-619.3,771.3L-619.3,771.3z M-634.8,768.2c-0.4-0.6-2-0.5-3.6,0.4
		c-1.6,0.8-2.5,2.2-2,2.9c0.5,0.8,2,0.7,3.6-0.4C-635.4,770.1-634.5,768.8-634.8,768.2z M-881.7,764.6c0.1-2.9-0.8-5.6-2.4-7
		c-4-3.6-5.2,0-1.5,4.6c3.2,4,1.9,6.9-2.4,5.3c-1.1-0.4-2,0-2,1C-890,773-882,769.2-881.7,764.6z M-673.8,752.5
		c-1.2-1.7-2.5-2.6-3-2.2c-0.5,0.5,0.2,2.1,1.5,3.6C-672.2,757.5-671,756.4-673.8,752.5z M-1000.3,750.1l4.3-3.7l-2.8-2.1
		c-2.8-2.1-6-1.6-4.6,0.7c0.4,0.6-0.9,2.4-2.8,3.8c-3.6,2.7-3.7,5-0.2,5C-1005.4,753.8-1002.7,752.2-1000.3,750.1z M-836.3,747.7
		c-1.1-0.7-1.1-1.6,0-2.9c1.1-1.4,0.7-2.7-1.2-4.5l-2.7-2.6v4.3c0,2.4,0.7,4.7,1.5,5.2c0.8,0.5,1.1,1.5,0.6,2.3
		c-0.5,0.7-0.4,2.1,0.2,3.1c0.7,1.2,1.4,0.8,2.1-1.1C-835.3,750-835.5,748.3-836.3,747.7L-836.3,747.7z M-872.5,745.7
		c0-2.8-0.6-5-1.4-5s-1.3,2.6-1.3,5.8c0,3.2,0.7,5.5,1.4,5C-873,751.1-872.5,748.5-872.5,745.7z M-933.9,743.6
		c-2.3-4.3-4.6-3.6-3.5,1.1c1.4,5.9,2.3,6.9,3.7,4.2C-932.8,747.5-932.9,745.5-933.9,743.6L-933.9,743.6z M-662.2,748.5
		c0.3-0.9-0.8-2-2.4-2.4c-2.3-0.6-3-0.1-3,2.1C-667.6,751.3-663.2,751.6-662.2,748.5z M-606.9,737.3c2.4-0.6,2.4-0.7,0.4-0.9
		c-1.4-0.1-2.6-0.9-2.6-1.8c0-1,1.4-1.3,3.7-0.7c3.2,0.8,3.7,0.5,3.6-3.1c0-6.6-2.1-8.4-4.5-3.8c-1.2,2.2-3.9,5.9-6.1,8.2
		c-4.2,4.5-4.1,8.7,0.1,5C-610.9,739-608.5,737.7-606.9,737.3L-606.9,737.3z M-680.2,732.6c1.1-5-1-2.2-2.7,3.7
		c-0.7,2.4-0.6,3.2,0.4,2.2C-681.8,737.7-680.7,735-680.2,732.6z M-892.8,726.8c-2-9.1-3.1-9.8-6.7-4.2l-2.5,3.9l3.1-0.8
		c1.7-0.4,3.5-0.2,3.9,0.5c0.5,0.7,0.1,1.3-0.7,1.3c-2.1,0-2,3.8,0.2,7.3C-892.3,739.9-890.8,735.6-892.8,726.8z M-665.6,733.6
		c-0.9-3.6-3.9-3.5-4.6,0.1c-0.2,1.3,0.7,2.6,2.2,2.9C-664.6,737.4-664.6,737.4-665.6,733.6L-665.6,733.6z M-585.4,733.4
		c3.9-3.2,3.2-3.7-2.3-1.5c-2.1,0.8-3.8,2.1-3.8,2.9C-591.5,737.1-589.3,736.6-585.4,733.4z M-905.4,723.7
		c2.3-5.6,2.9-12.5,1.2-14.3c-0.8-0.8-6.1,14.6-6.2,18.5C-910.6,731-907.3,728.3-905.4,723.7L-905.4,723.7z M-585.8,725l1.8-4
		l-3,2.8c-3.1,2.8-4,5.2-1.8,5.2C-588.1,729-586.8,727.2-585.8,725L-585.8,725z M-691.3,722.8c2.4-2.4,2.2-4.1-0.4-4.1
		c-1.2,0-2.2,0.3-2.2,0.6c0,0.3-0.4,1.7-0.9,2.9C-695.9,725-693.8,725.3-691.3,722.8L-691.3,722.8z M-692.5,713.6
		c0-1.2-1-2.2-2.2-2.2c-1.2,0-2.2,1-2.2,2.2s1,2.2,2.2,2.2C-693.4,715.8-692.5,714.8-692.5,713.6z M-755.4,709.2
		c0-1.1-0.7-2.4-1.5-2.9c-0.8-0.5-1.5,0.7-1.5,2.9s0.6,3.4,1.5,2.9C-756,711.6-755.4,710.3-755.4,709.2z M-649.2,709.6
		c0-1.8-0.6-4.1-1.3-5.1c-0.7-1.1-0.5-1.8,0.6-1.8c1.2,0,1.5-1.7,0.9-5.1c-0.5-3.2-0.2-5.5,0.9-6.2c1.7-1,6-9.3,5.1-9.7
		c-0.2-0.1-1.9-1-3.7-2c-4-2.2-5.3-2.3-4-0.4c0.9,1.5-3.2,10.1-5.7,11.9c-0.7,0.5-0.9,1.6-0.4,2.4c0.5,0.8,0,3.3-1.2,5.6l-2.1,4.1
		l4.7,4.8C-649.9,713.7-649.1,713.9-649.2,709.6L-649.2,709.6z M-677.8,702.5c0-5.2-0.3-5.8-2.2-4.2c-1.6,1.3-1.8,2.4-0.7,3.7
		c1.1,1.3,1.1,2.2,0,2.8c-1.7,1.1-0.7,3.7,1.5,3.7C-678.4,708.5-677.8,705.8-677.8,702.5L-677.8,702.5z M-904.1,704.9
		c1.3-3.4-5-10.5-6.6-7.6c-0.9,1.5-0.5,3.6,1.1,6C-906.9,707.5-905.3,708-904.1,704.9z M-745.9,702.4c0-5.5-3-7.2-4.4-2.5
		c-0.8,2.6,2,7.1,4.4,7.1C-745.9,707-745.9,704.9-745.9,702.4L-745.9,702.4z M-810.5,700.6c0.4-1.1-0.4-3.1-1.8-4.4l-2.6-2.3
		l0.6,4.4C-813.5,702.9-811.8,704-810.5,700.6L-810.5,700.6z M-733.4,701.2c0-2.7-8-14.7-9.9-14.7c-3.5,0-1.2,6.6,4.5,12.8
		C-735.7,702.8-733.4,703.6-733.4,701.2L-733.4,701.2z M-775,684.8c-0.1-9.5-2.6-7.6-3.3,2.5c-0.5,7.5-0.3,8.4,1.4,6.3
		C-775.8,692.2-775,688.3-775,684.8z M-666.8,688.5c-0.5-2-0.2-3.4,0.7-3.4c0.9,0,1.1-0.7,0.6-1.6c-1.6-2.7-4.1,1-4.5,6.8
		c-0.4,4.6-0.1,5,1.8,3.4C-666.8,692.6-666.3,690.6-666.8,688.5z M-702.2,679.9c-0.5-1.2-1.4-2.1-2.1-2.1c-1.5,0-1.8,3.4-0.4,4.8
		C-703.1,684.2-701.3,682.2-702.2,679.9L-702.2,679.9z M-672.9,679.5c1.8-2.9-1.3-9.5-3.3-7.1c-1.1,1.3-1.5,3.6-0.9,5.3
		C-676.1,680.8-674.2,681.6-672.9,679.5L-672.9,679.5z M-641.2,674.8c0-2.9-1.6-3.8-3.3-2.1c-1.2,1.2,0.4,5,2,5
		C-641.8,677.8-641.2,676.4-641.2,674.8L-641.2,674.8z M-714.6,649c-1.9-2.3-5.6-0.1-5.6,3.3c0,1.6,0.7,1.6,3.6,0.3
		C-713.8,651.3-713.3,650.5-714.6,649z M652.7,947.1c-1.3-2-1.3-3.1-0.2-3.8c2.1-1.3,6.3,3,5,5.1
		C656.1,950.7,654.7,950.3,652.7,947.1z M433.6,942.7c-1.1-1.8,1.7-3.5,3.6-2.3c1.6,1,0.6,3.6-1.5,3.6
		C435,944.1,434.1,943.5,433.6,942.7z M170.4,887.5c-1.9-1.9-0.9-3.1,3.4-3.7c4.7-0.7,5.4,0.1,2.6,2.9
		C174.5,888.7,171.9,889,170.4,887.5L170.4,887.5z M-452.2,878.1c0.4-1.1,1.5-2.2,2.6-2.6c1.1-0.4,1.6,0.2,1.3,1.3
		c-0.4,1.1-1.5,2.2-2.6,2.6C-452,879.8-452.6,879.2-452.2,878.1z M965.4,846c0-0.8,1.2-1.5,2.6-1.5c1.4,0,4.2-0.5,6.2-1l3.7-1
		l-2,2.4C973.7,847.7,965.4,848.5,965.4,846z M-3.8,842.1c-1.7-1.7-1.1-3.4,1.2-3.4c1.2,0,2.2,1,2.2,2.2
		C-0.3,843.2-2.1,843.8-3.8,842.1z M-468.6,824.9c0-1.4,1.3-2.3,3-2.3c3.6,0,3.1,3.4-0.6,4.1C-467.6,827-468.6,826.3-468.6,824.9
		L-468.6,824.9z M962.5,819.7c-1.8-1.1-1.7-1.5,0.4-2.3c3.1-1.2,5,0.3,3.1,2.3C965.2,820.5,963.8,820.5,962.5,819.7L962.5,819.7z
		 M-1071.9,788.7c3.4-3.4,5.7-2.9,4.3,1c-0.5,1.2-2.4,2.3-4.2,2.3h-3.3L-1071.9,788.7z M-1085.4,762.6c-0.5-0.8-2.3-1.4-4.1-1.4
		c-2.5,0-3.3-0.9-3.5-4.5c-0.4-5.2,2.4-5.3,4.7-0.2c0.8,1.8,3.1,3.7,5,4.4c3,1,3.2,1.4,1.2,2.1
		C-1083.5,763.5-1085,763.3-1085.4,762.6L-1085.4,762.6z M-1068.2,741.2c-2.3-0.9-0.9-3.4,1.9-3.4c1.2,0,2.1,1,2.1,2.2
		C-1064.2,742.2-1065,742.5-1068.2,741.2z M-1071.1,734.5c-3.9-5.1-4-6.3-0.4-3.9c3.7,2.5,5.6,5.7,3.2,5.7
		C-1069.1,736.3-1070.3,735.5-1071.1,734.5z M-926.1,730.4c-0.8-0.8-1.2-3.2-0.9-5.1c0.8-4.1,2.6-4.8,2.7-1c0.1,1.4,0.6,3.7,1.2,5.1
		C-921.8,732.2-923.7,732.8-926.1,730.4z M1207.6-180.5c0-2.1,0.8-3.7,1.9-3.7c1.1,0,1.7,1.3,1.5,3.2
		C1210.3-176.4,1207.6-176.1,1207.6-180.5z"/>
</g>
</svg>
